<svg width="726" height="425" viewBox="0 0 726 425" fill="none" xmlns="http://www.w3.org/2000/svg">
<path d="M604.04 146.706C614.573 138.148 628.849 131.724 642.762 129.287C644.468 128.988 652.378 128.909 660.34 129.115C671.058 129.389 676.964 130.119 683.088 131.925C698.637 136.513 713.197 146.007 722.1 157.366L725.956 162.284L714.345 173.465C699.7 187.567 700.16 187.079 700.716 187.912C700.973 188.297 700.865 188.349 700.476 188.026C700.087 187.705 698.294 189.008 696.49 190.923L693.212 194.406L687.266 188.042C679.365 179.589 672.077 176.008 661.374 175.324C654.539 174.886 652.039 175.234 646.982 177.324C631.432 183.751 623.013 201.84 625.745 222.954C628.013 240.475 636.199 250.789 651.293 255.139C658.198 257.128 666.683 256.528 673.442 253.573C679.014 251.136 686.508 245.439 687.242 243.082C687.545 242.107 688.953 240.388 690.37 239.26C692.856 237.282 693.029 237.282 695.319 239.26C702.597 245.549 724.966 268.587 724.966 269.793C724.966 271.297 715.912 281.102 710.24 285.742C708.387 287.258 706.999 289.01 707.155 289.637C707.311 290.263 706.979 290.465 706.418 290.084C705.856 289.705 703.071 290.685 700.227 292.265C682.025 302.373 656.205 305.518 635.176 300.188C631.573 299.275 628.128 298.865 627.52 299.276C626.913 299.688 626.687 299.543 627.019 298.953C627.351 298.364 625.3 296.978 622.46 295.873C610.267 291.127 594.279 277.961 587.484 267.069C577.235 250.645 574.062 240.193 573.27 220.262C572.381 197.858 576.064 182.513 586.21 166.359C591.804 157.452 594.571 154.402 604.04 146.706Z" fill="white"/>
<path d="M272.068 216.001C272.068 170.604 272.378 133.121 272.758 132.706C273.136 132.29 301.055 131.95 334.799 131.95H396.15V153.482V175.014H359.959H323.769V184.647V194.28H355.823H387.878V214.679V235.078H355.823H323.769V245.277V255.476H361.51H399.252V277.009V298.541H335.66H272.068V216.001Z" fill="white"/>
<path d="M273.102 330.272V325.173V320.073H499.551H726V325.173V330.272H499.551H273.102Z" fill="white"/>
<path d="M346.259 375.322C345.347 374.99 344.88 370.964 344.675 361.628C344.426 350.369 344.619 348.405 345.967 348.405C347.302 348.405 347.551 350.556 347.551 362.098C347.551 372.549 347.245 375.68 346.259 375.322Z" fill="white"/>
<path d="M403.742 352.173C402.807 353.197 400.171 350.658 400.875 349.41C401.756 347.847 404.422 348.228 404.422 349.915C404.422 350.747 404.116 351.763 403.742 352.173Z" fill="white"/>
<path d="M411.402 375.322C410.49 374.99 410.023 370.964 409.817 361.628C409.569 350.369 409.762 348.405 411.11 348.405C412.445 348.405 412.694 350.556 412.694 362.098C412.694 372.549 412.388 375.68 411.402 375.322Z" fill="white"/>
<path d="M272.585 375.036L272.293 362.287L272 349.538H279.789C286.023 349.538 287.578 349.877 287.578 351.238C287.578 352.56 286.2 352.938 281.374 352.938H275.17V356.904V360.871H280.857C285.223 360.871 286.544 361.265 286.544 362.571C286.544 363.876 285.223 364.27 280.857 364.27H275.17V368.237V372.203H281.891C287.258 372.203 288.612 372.556 288.612 373.951C288.612 375.404 287.26 375.643 280.599 375.367L272.585 375.036Z" fill="white"/>
<path d="M532.19 374.345C522.616 371.449 521.758 354.729 530.973 350.648C536.693 348.116 547.434 351.62 543.051 354.589C542.522 354.948 541.797 354.723 541.439 354.089C541.082 353.456 538.757 352.938 536.273 352.938C532.624 352.938 531.344 353.512 529.613 355.924C527.095 359.431 526.832 365.034 529.022 368.461C531.041 371.621 536.074 372.797 539.979 371.024C543.428 369.459 544.916 370.212 543.104 372.606C541.364 374.905 536.565 375.67 532.19 374.345Z" fill="white"/>
<path d="M693.959 352.914C692.795 354.979 691.402 353.664 692.234 351.287C692.928 349.306 696.579 348.924 697.596 350.727C698.053 351.536 698.738 351.485 699.749 350.565C701.539 348.936 702.707 349.907 701.861 352.322C701.125 354.425 697.958 354.615 696.177 352.663C695.155 351.544 694.704 351.595 693.959 352.914Z" fill="white"/>
<path d="M436.035 356.707C436.645 356.192 437.444 354.878 437.812 353.788C438.721 351.086 440.612 351.277 440.612 354.071C440.612 355.733 441.302 356.338 443.197 356.338C444.619 356.338 445.782 356.847 445.782 357.471C445.782 358.094 444.596 358.604 443.146 358.604C440.59 358.604 440.518 358.802 440.819 365.12C441.113 371.289 441.281 371.656 443.973 371.995C447.114 372.391 447.717 373.849 445.181 374.915C442.615 375.994 441.791 375.762 439.578 373.337C438.019 371.628 437.51 369.559 437.51 364.931C437.51 361.083 437.028 358.578 436.218 358.218C435.32 357.819 435.263 357.357 436.035 356.707Z" fill="white"/>
<path d="M640.769 356.707C641.379 356.192 642.179 354.878 642.547 353.788C643.456 351.086 645.347 351.277 645.347 354.071C645.347 355.733 646.037 356.338 647.932 356.338C649.354 356.338 650.517 356.847 650.517 357.471C650.517 358.094 649.331 358.604 647.88 358.604C645.324 358.604 645.253 358.802 645.554 365.12C645.847 371.289 646.016 371.656 648.708 371.995C651.812 372.387 652.46 373.845 649.991 374.883C647.829 375.792 643.697 373.896 642.903 371.631C642.541 370.597 642.245 367.286 642.245 364.273C642.245 360.951 641.736 358.567 640.952 358.218C640.055 357.819 639.998 357.357 640.769 356.707Z" fill="white"/>
<path d="M621.546 370.45C620.413 367.183 620.166 357.115 621.191 355.991C622.673 354.368 623.633 356.787 623.633 362.146C623.633 369.189 625.02 372.203 628.263 372.203C631.787 372.203 633.973 368.165 633.973 361.657C633.973 357.756 634.35 356.285 635.265 356.617C636.948 357.227 637.629 373.182 636.046 374.918C635.235 375.806 634.69 375.741 634.095 374.685C633.459 373.559 632.686 373.511 630.748 374.479C627.321 376.19 622.86 374.238 621.546 370.45Z" fill="white"/>
<path d="M291.973 365.053C290.069 363.703 290.401 358.895 292.49 357.561C295.794 355.452 303.089 356.344 303.089 358.858C303.089 359.494 301.83 359.738 300.256 359.408C297.28 358.784 293.783 360.199 293.783 362.028C293.783 362.62 295.882 363.683 298.447 364.392C302.009 365.375 303.259 366.321 303.733 368.39C304.497 371.726 302.818 374.106 299.061 375.01C295.46 375.877 290.68 373.946 290.68 371.625C290.68 370.194 291.085 370.094 292.799 371.1C295.656 372.776 300.504 372.066 300.504 369.973C300.504 369.051 298.893 367.789 296.885 367.14C294.894 366.496 292.684 365.558 291.973 365.053Z" fill="white"/>
<path d="M306.191 364.993C306.191 362.067 306.901 360.423 308.915 358.687C312.283 355.782 316.589 355.675 319.677 358.416C321.697 360.208 321.788 360.592 320.342 361.199C319.42 361.588 318.39 361.417 318.054 360.821C316.93 358.828 311.495 359.612 310.363 361.929C307.232 368.342 311.391 374.102 317.096 371.253C320.423 369.591 320.667 369.605 320.667 371.454C320.667 374.175 315.66 375.838 311.739 374.42C307.649 372.94 306.191 370.464 306.191 364.993Z" fill="white"/>
<path d="M402.612 375.323C401.646 375.673 401.32 373.341 401.32 366.064C401.32 358.06 401.602 356.338 402.912 356.338C404.242 356.338 404.456 357.871 404.205 365.596C404.005 371.749 403.472 375.012 402.612 375.323Z" fill="white"/>
<path d="M568.313 375.603C567.056 375.603 566.762 373.777 566.762 365.97C566.762 358.163 567.056 356.338 568.313 356.338C569.166 356.338 569.864 356.95 569.864 357.697C569.864 358.755 570.14 358.755 571.105 357.697C572.656 355.998 578.374 355.918 579.887 357.576C580.704 358.471 581.6 358.471 583.127 357.576C586.374 355.671 590.328 356.101 592.612 358.604C594.256 360.406 594.68 362.381 594.68 368.237C594.68 373.926 594.338 375.603 593.177 375.603C592.039 375.603 591.598 373.738 591.367 367.954C591.065 360.413 591.018 360.298 588.01 359.923C583.875 359.408 582.272 362.132 582.272 369.681C582.272 377.281 579.827 377.424 579.414 369.848C578.93 360.941 578.41 359.737 575.051 359.737C571.198 359.737 569.864 362.34 569.864 369.862C569.864 374.209 569.488 375.603 568.313 375.603Z" fill="white"/>
<path d="M671.879 363.484C672.242 362.359 673.502 360.265 674.679 358.834C676.349 356.803 677.713 356.306 680.882 356.568C683.326 356.77 685.385 357.673 686.049 358.833C687.394 361.186 686.116 362.942 684.415 361.078C683.052 359.584 678.574 359.316 676.708 360.616C676.042 361.08 675.188 362.813 674.809 364.466C674.293 366.718 674.687 368.095 676.379 369.949C678.581 372.363 680.614 372.501 684.898 370.528C686.158 369.947 686.707 370.213 686.707 371.404C686.707 372.345 685.24 373.675 683.446 374.361C680.368 375.537 680.281 375.722 681.895 377.677C682.836 378.816 683.605 380.073 683.605 380.469C683.605 381.837 679.615 383.526 677.993 382.844C675.601 381.838 676.01 379.859 678.435 380.703C679.621 381.115 680.503 380.907 680.503 380.212C680.503 379.547 680.038 379.003 679.469 379.003C678.901 379.003 678.435 378.017 678.435 376.812C678.435 375.586 677.484 374.292 676.273 373.87C673.718 372.982 670.936 366.404 671.879 363.484Z" fill="white"/>
<path fill-rule="evenodd" clip-rule="evenodd" d="M418.64 132.6C418.213 133.074 417.864 170.604 417.864 216.001V298.541H444.231H470.599V278.884V259.228L487.655 258.461C497.035 258.04 508.319 256.877 512.73 255.879C535.941 250.618 553.853 233.675 559.121 211.995C560.762 205.24 560.969 186.841 559.484 179.784C555.775 162.161 541.942 145.551 525.401 138.862C511.056 133.059 508.805 132.823 462.844 132.266C438.958 131.977 419.067 132.128 418.64 132.6ZM470.599 215.024V195.587V176.148H480.371C498.302 176.148 505.333 179.613 507.805 189.671C510.155 199.237 506.375 208.557 498.723 212.061C496.772 212.955 489.749 213.969 482.906 214.347L470.599 215.024Z" fill="white"/>
<path fill-rule="evenodd" clip-rule="evenodd" d="M451.897 357.79C447.427 361.552 446.772 367.303 450.301 371.8C455.419 378.321 465.429 374.012 465.429 365.289C465.429 358.44 456.805 353.661 451.897 357.79ZM450.953 366.399C450.953 365.146 451.434 363.135 452.023 361.929C453.25 359.417 459.065 358.883 461.086 361.097C463.982 364.272 461.225 372.203 457.227 372.203C454.547 372.203 450.953 368.878 450.953 366.399Z" fill="white"/>
<path fill-rule="evenodd" clip-rule="evenodd" d="M419.197 358.887C416.053 362.652 415.47 365.958 417.276 369.786C419.464 374.422 424.888 376.368 429.05 374.01C432.51 372.049 433.374 370.213 433.374 364.827C433.374 357.397 423.794 353.383 419.197 358.887ZM418.898 365.97C418.898 365.035 419.829 363.25 420.966 362.004C423.279 359.469 427.148 359.034 429.031 361.097C429.714 361.845 430.272 364.122 430.272 366.157C430.272 369.905 428.136 372.203 424.653 372.203C422.594 372.203 418.898 368.201 418.898 365.97Z" fill="white"/>
<path fill-rule="evenodd" clip-rule="evenodd" d="M327.035 358.152C321.605 362.321 322.171 370.653 328.114 374.022C330.549 375.401 331.824 375.483 334.697 374.444C340.581 372.317 342.257 365.017 338.17 359.324C335.658 355.823 330.743 355.306 327.035 358.152ZM335.047 371.127C329.615 374.312 323.966 368.135 327.265 362.617C329.138 359.485 333.763 358.678 335.97 361.097C338.075 363.405 337.496 369.69 335.047 371.127Z" fill="white"/>
<path fill-rule="evenodd" clip-rule="evenodd" d="M490.245 353.544C490.245 358.274 490.086 358.59 488.245 357.51C480.688 353.078 472.655 362.577 476.795 371.054C478.319 374.173 484.38 376.09 487.301 374.377C489.027 373.365 489.731 373.347 490.024 374.308C490.24 375.019 491.076 375.603 491.882 375.603C493.065 375.603 493.347 372.981 493.347 362.004C493.347 350.671 493.089 348.405 491.796 348.405C490.645 348.405 490.245 349.732 490.245 353.544ZM480.762 370.328C478.641 368.224 478.346 365.197 479.941 361.929C481.259 359.231 486.315 358.992 488.621 361.518C493.723 367.112 486.116 375.639 480.762 370.328Z" fill="white"/>
<path fill-rule="evenodd" clip-rule="evenodd" d="M379.83 362.195C380.036 371.076 380.508 374.992 381.415 375.322C382.282 375.637 382.708 374.506 382.708 371.889C382.708 368.036 382.776 367.977 388.019 367.296C396.301 366.222 399.868 360.856 396.727 354.199C394.813 350.141 393.384 349.538 385.691 349.538H379.537L379.83 362.195ZM383.225 363.704L382.909 358.321L382.594 352.938H387.844C392.415 352.938 393.241 353.297 394.25 355.724C395.182 357.964 395.064 359.089 393.651 361.453C392.147 363.967 391.262 364.344 387.558 364.049L383.225 363.704Z" fill="white"/>
<path fill-rule="evenodd" clip-rule="evenodd" d="M548.806 358.687C546.729 360.477 546.09 362.025 546.115 365.203C546.153 370.114 547.772 372.805 551.666 374.427C557.549 376.878 563.04 372.697 563.04 365.767C563.04 357.866 554.617 353.677 548.806 358.687ZM550.808 370.423C548.886 368.315 548.668 363.023 550.425 361.097C552.481 358.843 557.175 359.481 558.948 362.257C561.076 365.585 560.979 367.209 558.49 369.937C556.006 372.659 553.022 372.848 550.808 370.423Z" fill="white"/>
<path fill-rule="evenodd" clip-rule="evenodd" d="M600.075 368.995C600.281 377.875 600.753 381.792 601.66 382.122C602.556 382.448 602.952 381.137 602.952 377.842C602.952 373.736 603.196 373.214 604.762 373.987C613.52 378.308 621.591 366.462 614.89 359.12C612.214 356.186 608.293 355.551 604.952 357.51C603.574 358.32 602.952 358.32 602.952 357.51C602.952 356.866 602.239 356.338 601.367 356.338C600.021 356.338 599.827 358.24 600.075 368.995ZM606.304 371.033C603.133 369.088 602.237 365.587 603.99 361.998C604.909 360.114 605.956 359.683 608.947 359.957C612.036 360.239 612.925 360.891 613.751 363.481C615.595 369.262 611.007 373.916 606.304 371.033Z" fill="white"/>
<path fill-rule="evenodd" clip-rule="evenodd" d="M656.463 357.561C653.38 359.53 654.447 360.516 659.541 360.408C663.417 360.325 664.504 360.714 664.787 362.287C665.08 363.911 664.395 364.27 661.007 364.27C656.283 364.27 653.352 366.751 653.823 370.35C654.256 373.667 658.868 375.945 662.276 374.525C663.966 373.821 665.142 373.816 665.535 374.513C667.147 377.373 668.095 374.905 668.095 367.846C668.095 361.77 667.686 359.682 666.204 358.213C664.096 356.122 659.229 355.796 656.463 357.561ZM660.194 372.203C657.534 372.203 656.28 370.566 657.114 368.183C657.856 366.063 664.993 365.907 664.993 368.01C664.993 370.262 662.772 372.203 660.194 372.203Z" fill="white"/>
<path fill-rule="evenodd" clip-rule="evenodd" d="M710.789 358.887C706.235 364.341 706.997 370.752 712.576 373.913C715.2 375.4 716.438 375.498 719.35 374.444C723.507 372.941 724.966 370.485 724.966 364.993C724.966 357.404 715.451 353.305 710.789 358.887ZM720.24 370.423C715.582 375.526 708.395 368.51 712.037 362.418C713.794 359.479 718.488 358.757 720.623 361.097C722.38 363.023 722.162 368.315 720.24 370.423Z" fill="white"/>
<path fill-rule="evenodd" clip-rule="evenodd" d="M691.3 358.001C689.087 359.836 689.301 359.933 695.991 360.152C699.507 360.268 700.706 360.781 700.978 362.287C701.265 363.884 700.603 364.27 697.573 364.27C692.481 364.27 689.81 366.03 689.81 369.384C689.81 373.51 694.283 376.388 698.186 374.774C699.858 374.082 701.184 373.992 701.184 374.568C701.184 375.137 701.882 375.603 702.735 375.603C705.321 375.603 704.893 361.536 702.218 358.604C699.76 355.91 694.193 355.603 691.3 358.001ZM696.385 372.203C693.724 372.203 692.47 370.566 693.305 368.183C694.047 366.063 701.184 365.907 701.184 368.01C701.184 370.262 698.963 372.203 696.385 372.203Z" fill="white"/>
<path fill-rule="evenodd" clip-rule="evenodd" d="M500.269 358.634C496.707 361.705 496.062 364.463 497.827 369.091C499.769 374.185 504.453 376.469 508.857 374.47C510.563 373.696 511.959 372.359 511.959 371.5C511.959 369.599 511.457 369.554 508.999 371.235C506.503 372.944 501.963 371.625 500.579 368.79C499.535 366.651 499.812 366.537 506.063 366.537C509.685 366.537 512.921 366.239 513.254 365.874C514.299 364.727 511.828 358.606 509.851 357.447C506.852 355.688 503.154 356.146 500.269 358.634ZM500.631 361.911C501.161 360.824 502.183 359.704 502.9 359.422C505.759 358.299 510.925 360.817 510.925 363.334C510.925 363.913 508.392 364.275 505.295 364.137C500.294 363.916 499.773 363.666 500.631 361.911Z" fill="white"/>
<path fill-rule="evenodd" clip-rule="evenodd" d="M354.014 357.088C353.303 357.403 352.721 358.287 352.721 359.053C352.721 359.969 354.395 360.422 357.603 360.375C361.457 360.319 362.562 360.722 362.849 362.287C363.146 363.904 362.471 364.27 359.198 364.27C356.991 364.27 354.354 364.937 353.338 365.751C348.661 369.498 355.096 377.363 360.593 374.617C362.126 373.852 363.061 373.806 363.061 374.494C363.061 375.104 363.759 375.603 364.612 375.603C365.826 375.603 366.163 374.057 366.163 368.49C366.163 359.321 364.403 356.304 359.125 356.427C357.025 356.476 354.725 356.774 354.014 357.088ZM354.789 370.126C354.789 368.983 355.099 367.708 355.479 367.293C356.768 365.88 363.061 366.475 363.061 368.01C363.061 370.42 360.774 372.203 357.685 372.203C355.567 372.203 354.789 371.646 354.789 370.126Z" fill="white"/>
<path d="M131.376 18.8541C126.59 10.4231 125.504 5.93012 127.397 2.39312C130.572 -3.53788 140.401 1.61112 155.699 17.2201L163.53 25.2101L197.699 21.2521L231.868 17.2941L234.618 19.8081C238.001 22.9011 238.042 23.6841 234.899 25.1161C233.542 25.7341 232.711 26.6941 233.054 27.2491C233.397 27.8031 233.199 27.9621 232.615 27.6011C232.031 27.2401 228.474 28.6721 224.711 30.7831C220.947 32.8941 210.53 38.5641 201.561 43.3821C186.565 51.4391 185.359 52.2901 186.561 53.9691C187.28 54.9731 191.658 61.3421 196.289 68.1211C201.478 75.7161 205.317 80.3951 206.289 80.3101C207.158 80.2331 214.886 79.3711 223.463 78.3931C239.58 76.5561 242.745 76.7611 242.192 79.6111C241.885 81.1941 239.289 82.7221 221.164 91.9861L213.46 95.9241L214.958 99.5091C216.339 102.814 215.974 108.348 214.509 106.33C213.204 104.533 207.16 101.757 206.364 102.588C202.212 106.922 197.583 113.504 198.076 114.371C198.413 114.964 198.336 115.13 197.904 114.741C197.473 114.351 196.388 114.902 195.494 115.964C193.905 117.85 193.791 117.824 190.449 114.785L187.031 111.675L190.144 101.061L193.256 90.4481L183.062 80.4481C161.698 59.4911 139.273 32.7681 131.376 18.8541Z" fill="white"/>
<path d="M102.172 47.5771C105.22 52.2711 119.131 52.0391 124.189 47.2101C126.54 44.9651 126.439 45.8491 123.756 50.9791C121.578 55.1461 121.204 56.9571 121.582 61.5101C121.874 65.0391 122.824 68.0741 124.233 69.9791C126.827 73.4881 126.557 73.5891 121.629 70.9481C117.399 68.6811 107.527 68.1891 105.568 70.1481C104.908 70.8081 104.368 70.9811 104.368 70.5331C104.368 70.0851 103.258 70.4451 101.901 71.3351L99.4342 72.9511L101.561 69.3451C104.3 64.7031 104.511 55.8441 101.995 51.1051C100.38 48.0631 100.532 45.0501 102.172 47.5771Z" fill="white"/>
<path d="M134.339 78.8491C138.813 63.7781 142.706 50.6611 142.988 49.6981C143.758 47.0801 144.837 47.5491 147.594 51.6981C148.964 53.7611 153.299 58.7331 157.227 62.7471C161.154 66.7621 164.368 70.2611 164.368 70.5221C164.368 72.5311 132.348 112.108 131.068 111.681C130.475 111.484 129.138 110.181 128.096 108.786L126.203 106.25L134.339 78.8491Z" fill="white"/>
<path d="M66.2642 109.728C78.3892 101.469 91.9612 96.2411 106.953 94.0551C110.206 93.5801 115.681 93.1371 119.118 93.0701C126.147 92.9331 126.277 93.1211 123.868 99.9481C123.043 102.286 122.368 105.193 122.368 106.407C122.368 108.827 129.286 116.948 131.346 116.948C132.923 116.948 138.221 111.415 143.542 104.213C145.73 101.251 148.141 98.5891 148.898 98.2981C149.656 98.0071 152.771 98.7031 155.822 99.8451C158.872 100.986 161.375 101.589 161.383 101.184C161.392 100.779 161.729 100.92 162.133 101.496C162.537 102.072 165.118 103.824 167.868 105.389C175.588 109.782 185.344 117.27 190.983 123.132C197.425 129.828 204.368 139.354 204.368 141.499C204.368 143.601 196.957 158.384 193.616 162.948L191.053 166.448L195.296 162.448C201.133 156.945 210.838 143.935 213.362 138.23C215.925 132.435 216.169 126.1 213.959 122.727C212.363 120.291 212.386 120.176 214.585 119.587C215.841 119.251 220.468 118.979 224.868 118.984C242.471 119.002 248.235 127.638 241.078 143.271C239.648 146.393 238.791 148.962 239.173 148.978C239.555 148.995 239.08 149.467 238.118 150.028C237.156 150.589 236.368 151.481 236.368 152.012C236.368 153.814 216.251 177.446 210.495 182.404C209.19 183.528 206.563 185.935 204.657 187.753C195.078 196.888 161.656 223.154 152.622 228.648C150.836 229.734 149.711 230.992 150.122 231.445C150.532 231.898 150.362 231.98 149.743 231.627C149.124 231.273 146.766 232.326 144.502 233.966C142.238 235.606 140.132 236.948 139.822 236.948C139.512 236.948 136.695 238.677 133.563 240.791C117.719 251.483 81.2602 270.111 61.8682 277.423C41.1112 285.25 22.4742 288.831 12.2362 286.96C7.91518 286.171 6.18517 285.226 3.36817 282.117C0.462168 278.911 -0.106829 277.554 0.0151709 274.12C0.143171 270.537 5.44717 256.948 6.71817 256.948C6.96817 256.948 6.54118 259.045 5.77018 261.607C3.08918 270.514 4.41815 275.371 10.3792 278.454C16.4002 281.567 31.4502 279.504 47.6012 273.351C58.0902 269.355 80.7362 257.858 92.9962 250.304C108.329 240.857 110.278 239.233 100.64 243.934C96.1152 246.142 91.9522 247.948 91.3902 247.948C90.7072 247.948 90.3682 230.071 90.3682 193.974V139.999L93.4472 138.407C97.1262 136.505 99.7462 130.945 98.8612 126.917C98.0652 123.29 94.0152 119.249 90.3762 118.45C84.6022 117.182 77.3682 123.074 77.3682 129.045C77.3682 132.619 80.3362 136.908 83.8162 138.362C86.2232 139.368 87.1142 140.317 86.8682 141.615C86.6772 142.623 86.4872 167.401 86.4452 196.678L86.3682 249.907L82.6182 251.786C80.5562 252.819 77.6302 253.962 76.1182 254.325L73.3682 254.986L73.3362 232.717L73.3042 210.448L67.7872 202.669C64.5102 198.049 61.8212 195.168 61.1642 195.574C60.4822 195.995 60.3432 195.798 60.8002 195.058C61.2362 194.352 59.8592 191.631 57.4552 188.446C53.1882 182.796 52.6322 181.084 54.4682 179.248C56.3052 177.411 55.7262 171.259 53.4092 168.006C47.4782 159.676 34.3832 164.336 34.3722 174.781C34.3692 177.305 35.2542 178.975 38.0122 181.654C41.3722 184.916 42.0152 185.151 46.2622 184.659L50.8682 184.126L60.5872 197.287L70.3062 210.448L70.3372 232.698C70.3542 244.936 70.4742 255.285 70.6042 255.698C70.8782 256.572 50.9372 262.822 47.6322 262.897C45.8832 262.937 44.7382 261.642 42.3682 256.948C40.7022 253.648 38.8212 250.948 38.1872 250.948C37.5532 250.948 37.2992 250.683 37.6232 250.359C37.9472 250.036 36.9122 247.722 35.3242 245.218C31.2102 238.731 26.7142 227.483 24.1472 217.255C21.3272 206.022 21.1122 183.565 23.7152 172.095C26.8442 158.307 34.8292 141.444 43.0792 131.198C44.9622 128.86 46.2252 126.948 45.8872 126.948C44.5402 126.948 59.3192 114.457 66.2642 109.728Z" fill="white"/>
<path d="M80.7672 130.4C79.9302 127.066 81.7212 123.143 84.6102 121.982C88.5012 120.418 91.0062 120.858 93.7322 123.584C97.1232 126.975 97.1932 131.214 93.9132 134.493C89.3732 139.034 82.3882 136.859 80.7672 130.4Z" fill="white"/>
<path d="M44.7962 181.948C36.6322 181.948 34.2782 170.625 41.7682 167.384C47.4522 164.925 52.7682 168.39 52.7682 174.555C52.7682 179.047 49.6402 181.948 44.7962 181.948Z" fill="white"/>
<path d="M133.368 248.911C156.562 233.359 183.365 211.534 205.239 190.388C211.635 184.205 217.06 179.331 217.295 179.558C217.53 179.784 216.608 181.202 215.246 182.708C213.885 184.215 209.552 189.723 205.618 194.948C181.609 226.837 146.453 261.016 111.368 286.575C103.591 292.24 83.4472 305.948 82.8982 305.948C82.6452 305.948 79.0222 308.022 74.8462 310.558C70.6702 313.093 67.1332 315.005 66.9852 314.808C66.8372 314.61 64.8852 309.148 62.6472 302.669L58.5782 290.891L61.2232 289.551C100.695 269.561 112.424 262.954 133.368 248.911Z" fill="white"/>
<path d="M176.946 237.531C185.555 227.685 203.906 204.049 211.818 192.615C215.091 187.885 217.933 184.18 218.133 184.38C219.058 185.304 202.293 221.512 193.428 237.736C176.461 268.789 152.632 302.27 128.675 328.715L121.186 336.983L96.5312 336.715L71.8762 336.448L70.9442 332.027C70.1311 328.171 70.2582 327.432 71.9402 326.248C73.0002 325.502 79.2682 321.369 85.8682 317.064C92.4682 312.76 99.7562 307.71 102.065 305.843C104.373 303.976 108.423 300.884 111.065 298.972C116.341 295.153 125.161 287.987 129.858 283.703C131.514 282.193 133.232 280.955 133.677 280.953C134.122 280.95 134.165 280.428 133.773 279.793C133.37 279.143 133.495 278.908 134.057 279.256C135.187 279.954 166.414 249.575 176.946 237.531Z" fill="white"/>
<path d="M197.171 240.448C204.525 225.698 211.029 211.239 215.489 199.723C217.348 194.925 219.048 190.987 219.269 190.973C219.489 190.959 219.396 195.561 219.063 201.198C217.98 219.5 213.854 231.233 200.813 253.095C188.066 274.465 178.109 299.216 171.806 325.198L168.956 336.948H151.162C141.375 336.948 133.368 336.582 133.368 336.135C133.368 335.688 134.763 334 136.467 332.385C143.036 326.16 172.856 284.786 177.865 274.948C178.845 273.023 179.934 271.223 180.286 270.948C181.462 270.027 191.126 252.57 197.171 240.448Z" fill="white"/>
<path d="M66.3682 353.963C66.3682 348.432 66.7182 346.843 68.1182 346.028C70.5242 344.627 172.013 344.565 172.878 345.964C173.224 346.523 173.86 346.762 174.292 346.495C174.724 346.228 175.165 349.297 175.271 353.316C175.408 358.504 175.064 360.955 174.084 361.769C172.2 363.332 71.2722 363.502 68.3672 361.947C66.6642 361.036 66.3682 359.853 66.3682 353.963Z" fill="white"/>
<path d="M66.5682 379.086C66.3882 375.293 66.7362 372.209 67.4402 371.361C68.4232 370.177 77.0642 369.948 120.79 369.948C160.04 369.948 173.265 370.245 174.168 371.148C174.862 371.842 175.368 375.169 175.368 379.041C175.368 384.422 175.025 385.902 173.618 386.591C171.917 387.424 70.1222 388.858 70.9452 388.037C71.1712 387.811 70.3462 387.125 69.1122 386.512C67.1982 385.562 66.8242 384.468 66.5682 379.086Z" fill="white"/>
<path d="M86.8072 411.429C81.6952 406.193 75.9302 396.466 76.9552 394.807C77.5462 393.85 163.684 393.597 164.637 394.55C165.561 395.475 162.32 401.936 158.395 406.991C149.082 418.987 139.354 423.944 123.621 424.711C107.984 425.473 96.4572 421.314 86.8072 411.429Z" fill="white"/>
</svg>
