<svg width="414" height="379" viewBox="0 0 414 379" fill="none" xmlns="http://www.w3.org/2000/svg">
<path fill-rule="evenodd" clip-rule="evenodd" d="M384.949 305.34H413.366V316.395C413.366 319.61 410.744 322.233 407.529 322.233H384.949C372.106 322.233 369.079 329.45 369.079 341.368C369.079 353.313 372.1 360.403 384.949 360.403H413.366V371.459C413.366 374.676 410.744 377.298 407.529 377.298H384.949C362.233 377.298 352.185 363.149 352.185 341.368C352.185 319.607 362.233 305.34 384.949 305.34Z" fill="#EB2B00"/>
<path fill-rule="evenodd" clip-rule="evenodd" d="M318.517 305.34H341.097C344.312 305.34 346.935 307.962 346.935 311.178V322.233H318.517C305.673 322.233 302.646 329.45 302.646 341.368C302.646 353.313 305.669 360.403 318.517 360.403H341.097C344.312 360.403 346.935 363.025 346.935 366.241V377.298H318.517C295.802 377.298 285.752 363.149 285.752 341.368C285.752 319.607 295.8 305.34 318.517 305.34Z" fill="#EB2B00"/>
<path fill-rule="evenodd" clip-rule="evenodd" d="M264.981 322.233V377.298H247.988V322.233H228.514V311.178C228.514 307.962 231.135 305.34 234.351 305.34H284.456V316.395C284.456 319.61 281.834 322.233 278.619 322.233H264.981Z" fill="#EB2B00"/>
<path fill-rule="evenodd" clip-rule="evenodd" d="M119.807 305.34H129.443L150.027 360.78C150.254 361.328 150.553 361.887 151.251 361.887C151.923 361.887 152.097 361.346 152.097 360.744V321.299C152.097 310.609 158.75 304.153 169.441 304.153C179.254 304.153 184.714 309.344 187.719 318.242L203.925 360.834C204.128 361.409 204.51 361.887 205.128 361.887C205.778 361.887 205.874 361.305 205.874 360.744V311.177C205.874 307.962 208.497 305.34 211.712 305.34H222.868V361.239C222.868 372.028 216.216 378.483 205.424 378.483C195.597 378.483 190.246 373.284 187.246 364.395L171.04 321.805C170.822 321.187 170.406 320.653 169.738 320.653C169.06 320.653 168.989 321.332 168.989 321.893V361.239C168.989 372.028 162.339 378.483 151.547 378.483C141.718 378.483 136.369 373.284 133.366 364.386L114.336 313.213C113.648 311.365 113.888 309.465 115.013 307.846C116.138 306.226 117.835 305.34 119.807 305.34Z" fill="#EB2B00"/>
<path fill-rule="evenodd" clip-rule="evenodd" d="M43.2003 328.537L61.6705 307.342C62.8194 306.024 64.3247 305.34 66.073 305.34H84.7818L53.9156 340.796L84.8834 377.298H66.5075C64.7179 377.298 63.1773 376.577 62.0284 375.203L42.8306 352.233L23.0686 375.261C21.9197 376.599 20.4012 377.298 18.6381 377.298H0L32.1049 339.876L2.8088 305.34H21.1774C22.9729 305.34 24.518 306.065 25.6654 307.447L43.2003 328.537Z" fill="#EB2B00"/>
<path fill-rule="evenodd" clip-rule="evenodd" d="M200.875 272.106C180.316 272.106 160.826 267.535 143.353 259.371C157.212 264.728 172.271 267.671 188.019 267.671C256.48 267.671 311.974 212.175 311.974 143.716C311.974 75.2565 256.48 19.7604 188.019 19.7604C179.26 19.7604 170.716 20.6722 162.469 22.4014C165.795 21.4425 169.172 20.6029 172.598 19.89C226.763 8.60907 282.446 30.6246 314.253 75.8928C375.464 163.015 301.67 272.106 200.875 272.106ZM285.64 232.623C295.644 224.057 304.387 213.92 311.424 202.443C335.291 163.513 334.1 118.206 307.637 80.5413C302.809 73.6702 297.388 67.3647 291.479 61.6675C309.372 84.1985 320.059 112.71 320.059 143.716C320.059 177.961 307.021 209.161 285.64 232.623Z" fill="url(#paint0_linear_124_24)"/>
<path fill-rule="evenodd" clip-rule="evenodd" d="M200.875 0C250.762 0 294.372 26.854 318.052 66.8934C285.307 20.8254 227.967 -1.17097 172.644 11.4371C128.287 21.5456 92.4027 52.2645 74.9944 92.7547C70.0587 103.682 66.6637 115.452 65.0803 127.791C69.3532 56.4991 128.509 0 200.875 0Z" fill="url(#paint1_linear_124_24)"/>
<path fill-rule="evenodd" clip-rule="evenodd" d="M195.412 99.3606L178.591 68.8538C178.305 68.8936 178.014 68.9127 177.718 68.9127C176.64 68.9127 175.623 68.6447 174.731 68.1748L140.978 97.7684C141.467 98.7066 141.801 99.7377 141.956 100.825L191.185 105.765C191.915 103.215 193.413 100.993 195.412 99.3606ZM290.857 140.328C293.716 141.384 295.755 144.134 295.755 147.36C295.755 150.996 293.167 154.025 289.731 154.706C287.621 168.515 282.637 181.378 275.408 192.665C276.012 193.746 276.355 194.989 276.355 196.315C276.355 200.452 272.997 203.804 268.86 203.804C268.31 203.804 267.776 203.745 267.261 203.632C265.609 205.56 263.884 207.425 262.09 209.219C254.222 217.085 245.024 223.624 234.863 228.469C234.899 228.786 234.921 229.107 234.921 229.434C234.921 233.937 231.273 237.587 226.771 237.587C224.002 237.587 221.557 236.208 220.084 234.097C211.372 236.629 202.161 237.987 192.632 237.987C189.234 237.987 185.878 237.814 182.569 237.478C181.565 239.148 179.734 240.266 177.643 240.266C174.919 240.266 172.638 238.372 172.049 235.827C158.368 232.907 145.74 227.142 134.816 219.178C133.189 220.285 131.226 220.931 129.109 220.931C123.49 220.931 118.937 216.38 118.937 210.764C118.937 209.048 119.361 207.431 120.111 206.014C112.042 197.185 105.565 186.878 101.13 175.547C97.4562 175.511 94.4884 172.523 94.4884 168.843C94.4884 166.603 95.5842 164.622 97.2707 163.404C95.3986 155.833 94.4044 147.915 94.4044 139.765C94.4044 133.502 94.9906 127.375 96.1115 121.438C92.7312 120.046 90.3495 116.72 90.3495 112.836C90.3495 107.699 94.5119 103.533 99.6479 103.533C100.194 103.533 100.731 103.579 101.252 103.669C106.235 91.0608 113.751 79.7312 123.176 70.3076C124.334 69.1484 125.521 68.0202 126.735 66.9214C125.801 65.6547 125.25 64.0934 125.25 62.3996C125.25 58.1944 128.658 54.7817 132.866 54.7817C135.254 54.7817 137.384 55.882 138.781 57.6023C152.633 48.5056 168.923 42.8173 186.456 41.7288C187.246 39.1026 189.681 37.1923 192.563 37.1923C195.441 37.1923 197.873 39.0997 198.665 41.72C213.716 42.6317 227.852 46.9341 240.319 53.8715C240.95 53.708 241.609 53.6225 242.288 53.6225C246.133 53.6225 249.333 56.3857 250.011 60.0326C254.312 63.1331 258.35 66.5693 262.09 70.3076C266.419 74.6364 270.344 79.3703 273.809 84.443C274.613 84.2015 275.464 84.0719 276.345 84.0719C281.214 84.0719 285.163 88.0222 285.163 92.8916C285.163 95.4987 284.032 97.8421 282.234 99.4564C287.776 111.755 290.86 125.4 290.86 139.765L290.857 140.328ZM285.151 154.176C282.566 152.995 280.769 150.389 280.769 147.36C280.769 146.698 280.856 146.056 281.018 145.445L269.463 133.925C269.125 134.106 268.774 134.263 268.407 134.392L270.835 189.084C271.227 189.19 271.605 189.327 271.969 189.495C278.591 178.95 283.172 166.992 285.151 154.176ZM283.575 141.514C284.356 140.886 285.265 140.415 286.256 140.139V139.765C286.256 126.147 283.349 113.209 278.118 101.536C277.545 101.652 276.952 101.713 276.345 101.713C276.044 101.713 275.745 101.697 275.449 101.667L270.059 120.456C272.197 121.853 273.614 124.269 273.614 127.014C273.614 128.337 273.284 129.583 272.705 130.676L283.575 141.514ZM197.07 198.76C198.486 198.76 199.835 199.047 201.06 199.567L217.902 176.323C216.924 175.155 216.222 173.744 215.904 172.194L170.91 170.284C170.549 171.716 169.91 173.037 169.059 174.19L192.137 200.028C193.6 199.221 195.282 198.76 197.07 198.76ZM204.784 202.267C205.506 203.094 206.096 204.038 206.525 205.068C221.397 202.557 249.17 197.848 261.398 195.665C261.429 195.317 261.48 194.977 261.557 194.644L231.775 176.927C230.072 178.635 227.717 179.691 225.113 179.691C223.88 179.691 222.705 179.453 221.625 179.023L204.784 202.267ZM207.288 209.572C207.226 210.69 206.983 211.762 206.59 212.757L221.629 223.108C223.032 221.967 224.823 221.283 226.771 221.283C229.297 221.283 231.554 222.431 233.047 224.235C242.667 219.625 251.378 213.421 258.835 205.964C260.352 204.445 261.821 202.876 263.23 201.256C262.853 200.826 262.525 200.356 262.254 199.848C248.821 202.404 221.842 207.073 207.288 209.572ZM203.984 216.536C202.165 218.205 199.736 219.223 197.07 219.223C195.406 219.223 193.836 218.825 192.447 218.121L181.945 230.719C182.496 231.342 182.916 232.087 183.156 232.907C186.272 233.221 189.433 233.383 192.632 233.383C201.651 233.383 210.372 232.108 218.625 229.727L218.619 229.434C218.619 228.545 218.76 227.689 219.024 226.888L203.984 216.536ZM188.927 215.179C188.115 214.113 187.508 212.88 187.163 211.544L139.075 212.798C138.86 213.858 138.48 214.858 137.961 215.772C148.239 223.176 160.081 228.546 172.893 231.296C173.916 229.791 175.638 228.798 177.591 228.78L188.927 215.179ZM187.046 206.958C187.331 205.538 187.912 204.224 188.719 203.083L165.638 177.243C163.989 178.196 162.074 178.743 160.034 178.743C158.423 178.743 156.892 178.404 155.509 177.793L136.74 204.04C137.781 205.22 138.552 206.643 138.957 208.213L187.046 206.958ZM271.141 100.013C268.949 98.4076 267.525 95.8153 267.525 92.8916C267.525 90.5674 268.427 88.4523 269.897 86.8777C266.622 82.1011 262.916 77.6441 258.835 73.5627C255.827 70.555 252.613 67.7492 249.22 65.1716C248.672 66.1938 247.908 67.0819 246.984 67.7712L265.416 119.195L265.637 119.187L271.141 100.013ZM263.903 190.694C264.587 190.091 265.379 189.611 266.25 189.287L263.822 134.597C263.302 134.461 262.804 134.274 262.332 134.042L233.033 165.219C233.972 166.683 234.516 168.424 234.516 170.29C234.516 171.224 234.379 172.126 234.126 172.978L263.903 190.694ZM140.128 64.7076C139.371 67.0863 137.478 68.9599 135.086 69.6875L134.852 92.8931C135.977 93.1803 137.024 93.6693 137.951 94.3174L171.704 64.7253L171.666 64.6222C161.181 64.687 150.683 64.7179 140.128 64.7076ZM105.453 105.567C106.26 106.214 106.958 106.989 107.512 107.865L122.898 102.869C122.882 102.641 122.874 102.411 122.874 102.178C122.874 99.9807 123.615 97.9555 124.861 96.3367L116.273 85.5816C111.901 91.7324 108.251 98.4371 105.453 105.567ZM108.93 112.237C108.943 112.434 108.949 112.634 108.949 112.836C108.949 115.514 107.818 117.927 106.006 119.623L118.254 141.873L127.607 110.45C126.268 109.661 125.138 108.559 124.318 107.241L108.93 112.237ZM101.98 121.842C101.557 121.952 101.122 122.03 100.678 122.077C99.5831 127.805 99.0087 133.719 99.0087 139.765C99.0087 147.483 99.944 154.983 101.704 162.156C102.416 162.211 103.095 162.376 103.728 162.634L116.13 147.545L101.98 121.842ZM107.129 165.718C107.621 166.65 107.899 167.714 107.899 168.843C107.899 170.919 106.954 172.776 105.469 174.007C109.63 184.586 115.66 194.224 123.154 202.515C123.801 202.047 124.505 201.652 125.256 201.346L117.438 153.175L107.129 165.718ZM129.788 200.614C130.922 200.688 132.005 200.948 133.008 201.364L151.775 175.119C149.937 173.121 148.815 170.455 148.815 167.525C148.815 166.6 148.928 165.702 149.139 164.843L121.859 151.761L129.788 200.614ZM258.984 130.897C258.356 129.798 257.987 128.531 257.957 127.181L215.041 114.975C213.911 117.27 212.117 119.177 209.907 120.447L224.238 160.928C224.525 160.901 224.817 160.888 225.113 160.888C226.773 160.888 228.331 161.318 229.685 162.072L258.984 130.897ZM259.217 122.756C259.722 121.98 260.358 121.297 261.097 120.743L242.664 69.3178L242.288 69.3281C241.246 69.3281 240.251 69.1234 239.341 68.7551L213.257 100.943C215.19 103.19 216.358 106.111 216.358 109.309C216.358 109.728 216.337 110.144 216.299 110.552L259.217 122.756ZM141.502 105.391C140.861 107.192 139.701 108.746 138.198 109.867L157.873 156.512C158.571 156.377 159.295 156.303 160.034 156.303C161.723 156.303 163.326 156.677 164.764 157.347L194.12 118.046C192.208 115.988 190.962 113.302 190.729 110.331L141.502 105.391ZM133.974 111.652C133.481 111.729 132.98 111.77 132.466 111.77C132.315 111.77 132.164 111.765 132.014 111.758L121.652 146.577L151.123 160.71C151.833 159.781 152.687 158.966 153.65 158.297L133.974 111.652ZM128.454 93.4705C129.031 93.2053 129.636 92.9947 130.267 92.846L130.498 69.7287C129.105 70.9674 127.747 72.2459 126.43 73.5627C123.837 76.155 121.397 78.902 119.12 81.783L128.454 93.4705ZM216.099 167.611C216.731 165.482 218.097 163.668 219.903 162.464L205.572 121.98C204.905 122.088 204.22 122.143 203.523 122.143C201.468 122.143 199.527 121.659 197.805 120.802L168.447 160.103C169.811 161.65 170.755 163.573 171.103 165.699L216.099 167.611ZM198.318 46.314C197.293 48.4615 195.101 49.9432 192.563 49.9432C191.912 49.9432 191.286 49.846 190.697 49.6663L183.216 59.2078C183.39 59.4965 183.54 59.8014 183.668 60.118L234.743 59.3006C235.008 58.3771 235.439 57.5213 236.001 56.7716C224.617 50.8108 211.855 47.1256 198.318 46.314ZM187.087 46.8369C186.987 46.6704 186.894 46.4981 186.809 46.3199C170.938 47.2949 156.137 52.2233 143.377 60.1298L171.736 60.1991C172.663 57.7967 174.99 56.0941 177.718 56.0941C178.375 56.0941 179.009 56.1927 179.607 56.3768L187.087 46.8369ZM183.801 64.5308C183.542 65.3085 183.138 66.0214 182.62 66.6356L199.437 97.1365C200.72 96.7065 202.094 96.4723 203.523 96.4723C205.759 96.4723 207.862 97.0452 209.693 98.0497L235.778 65.8668C235.37 65.2629 235.045 64.5971 234.815 63.8886C217.706 64.1582 200.755 64.3821 183.801 64.5308Z" fill="url(#paint2_linear_124_24)"/>
<path fill-rule="evenodd" clip-rule="evenodd" d="M38.736 150.706C53.1233 153.315 67.0319 143.679 69.6419 129.292H69.6434C67.0334 143.68 76.6691 157.587 91.0565 160.197V160.199C76.6691 157.589 62.762 167.226 60.1505 181.613C62.7605 167.225 53.1233 153.318 38.736 150.706Z" fill="url(#paint3_linear_124_24)"/>
<path fill-rule="evenodd" clip-rule="evenodd" d="M65.4721 209.952L65.4706 209.951C76.6278 211.974 87.4124 204.502 89.4362 193.347C87.4139 204.504 94.8845 215.287 106.042 217.311V217.312C94.8845 215.288 84.1013 222.76 82.0761 233.918V233.916C84.0999 222.761 76.6278 211.976 65.4721 209.952Z" fill="url(#paint4_linear_124_24)"/>
<path fill-rule="evenodd" clip-rule="evenodd" d="M112.705 248.498C120.378 249.89 127.795 244.751 129.187 237.079C127.797 244.752 132.934 252.169 140.608 253.56C132.934 252.169 125.518 257.309 124.125 264.981C125.517 257.309 120.378 249.891 112.705 248.498Z" fill="url(#paint5_linear_124_24)"/>
<defs>
<linearGradient id="paint0_linear_124_24" x1="294.187" y1="273.139" x2="319.191" y2="25.1328" gradientUnits="userSpaceOnUse">
<stop stop-color="#FF0099"/>
<stop offset="0.5" stop-color="#EB2B00"/>
<stop offset="0.75" stop-color="#F57700"/>
<stop offset="1" stop-color="#FFC300"/>
</linearGradient>
<linearGradient id="paint1_linear_124_24" x1="126.614" y1="45.1606" x2="204.344" y2="-47.3248" gradientUnits="userSpaceOnUse">
<stop stop-color="#FBFF00"/>
<stop offset="0.508825" stop-color="#FF9E00"/>
<stop offset="0.77" stop-color="#FF9E00"/>
</linearGradient>
<linearGradient id="paint2_linear_124_24" x1="134.834" y1="214.861" x2="261.653" y2="69.034" gradientUnits="userSpaceOnUse">
<stop stop-color="#FF0048"/>
<stop offset="1" stop-color="#FFC300"/>
</linearGradient>
<linearGradient id="paint3_linear_124_24" x1="50.0671" y1="175.068" x2="82.7918" y2="137.866" gradientUnits="userSpaceOnUse">
<stop stop-color="#FF0048"/>
<stop offset="1" stop-color="#FFC300"/>
</linearGradient>
<linearGradient id="paint4_linear_124_24" x1="74.2571" y1="228.842" x2="99.6322" y2="199.995" gradientUnits="userSpaceOnUse">
<stop stop-color="#FF0048"/>
<stop offset="1" stop-color="#FFC300"/>
</linearGradient>
<linearGradient id="paint5_linear_124_24" x1="118.748" y1="261.491" x2="136.2" y2="241.651" gradientUnits="userSpaceOnUse">
<stop stop-color="#FF0048"/>
<stop offset="1" stop-color="#FFC300"/>
</linearGradient>
</defs>
</svg>
