<svg width="442" height="373" viewBox="0 0 442 373" fill="none" xmlns="http://www.w3.org/2000/svg">
<path d="M412.999 298.691H440.916V309.271C440.916 312.217 438.517 314.622 435.579 314.622H412.999C406.483 314.622 402.33 316.462 399.84 319.942C397.381 323.38 396.628 328.315 396.628 334.304C396.628 340.306 397.379 345.218 399.839 348.628C402.329 352.079 406.483 353.886 412.999 353.887H440.916V364.467C440.916 367.415 438.517 369.819 435.579 369.819H412.999C401.749 369.819 393.713 366.311 388.478 360.174C383.232 354.022 380.734 345.153 380.734 334.304C380.734 323.466 383.231 314.571 388.478 308.392C393.55 302.42 401.251 298.916 411.954 298.702L412.999 298.691Z" fill="#5D1987" stroke="#3D3838"/>
<path fill-rule="evenodd" clip-rule="evenodd" d="M346.566 298.19H369.146C372.361 298.19 374.985 300.818 374.985 304.042V315.123H346.566C333.723 315.123 330.696 322.357 330.696 334.304C330.696 346.277 333.718 353.384 346.566 353.384H369.146C372.361 353.384 374.985 356.013 374.985 359.236V370.32H346.566C323.851 370.32 313.802 356.137 313.802 334.304C313.802 312.491 323.85 298.19 346.566 298.19Z" fill="#5D1987"/>
<path fill-rule="evenodd" clip-rule="evenodd" d="M293.031 315.123V370.32H276.038V315.123H256.563V304.042C256.563 300.818 259.185 298.19 262.4 298.19H312.506V309.271C312.506 312.494 309.884 315.123 306.668 315.123H293.031Z" fill="#5D1987"/>
<path fill-rule="evenodd" clip-rule="evenodd" d="M147.857 298.19H157.493L178.077 353.762C178.303 354.311 178.602 354.872 179.301 354.872C179.972 354.872 180.146 354.329 180.146 353.726V314.187C180.146 303.471 186.799 297 197.491 297C207.303 297 212.763 302.203 215.768 311.123L231.975 353.816C232.178 354.393 232.559 354.872 233.178 354.872C233.827 354.872 233.923 354.288 233.923 353.726V304.041C233.923 300.818 236.546 298.19 239.762 298.19H250.918V354.222C250.918 365.037 244.266 371.507 233.474 371.507C223.647 371.507 218.296 366.296 215.295 357.386L199.089 314.694C198.871 314.075 198.456 313.539 197.787 313.539C197.109 313.539 197.039 314.22 197.039 314.782V354.222C197.039 365.037 190.389 371.507 179.597 371.507C169.768 371.507 164.418 366.296 161.415 357.377L142.385 306.082C141.697 304.229 141.937 302.325 143.063 300.702C144.188 299.078 145.885 298.19 147.857 298.19Z" fill="#5D1987"/>
<path fill-rule="evenodd" clip-rule="evenodd" d="M43.2003 323.252L61.6705 302.007C62.8194 300.686 64.3247 300 66.073 300H84.7818L53.9156 335.541L84.8835 372.13H66.5075C64.7179 372.13 63.1773 371.407 62.0284 370.03L42.8306 347.005L23.0686 370.088C21.9198 371.429 20.4012 372.13 18.6381 372.13H0L32.1049 334.618L2.8088 300H21.1774C22.9729 300 24.518 300.727 25.6654 302.112L43.2003 323.252Z" fill="#5D1987"/>
<path fill-rule="evenodd" clip-rule="evenodd" d="M226.139 272.755C205.58 272.755 186.091 268.174 168.618 259.99C182.476 265.36 197.535 268.31 213.284 268.31C281.744 268.31 337.239 212.681 337.239 144.059C337.239 75.4361 281.744 19.8076 213.284 19.8076C204.524 19.8076 195.98 20.7215 187.733 22.4549C191.059 21.4937 194.436 20.6521 197.862 19.9375C252.027 8.62957 307.71 30.6977 339.517 76.0739C400.728 163.404 326.934 272.755 226.139 272.755ZM310.905 233.178C320.909 224.592 329.652 214.431 336.688 202.926C360.555 163.903 359.365 118.488 332.901 80.7335C328.073 73.846 322.653 67.5255 316.743 61.8147C334.636 84.3995 345.324 112.979 345.324 144.059C345.324 178.386 332.286 209.66 310.905 233.178Z" fill="url(#paint0_linear_55_28)"/>
<path fill-rule="evenodd" clip-rule="evenodd" d="M226.138 0C276.026 0 319.635 26.9181 343.315 67.0531C310.571 20.8751 253.231 -1.17376 197.907 11.4644C153.551 21.597 117.667 52.3892 100.258 92.9761C95.3227 103.929 91.9276 115.728 90.3442 128.096C94.6171 56.6339 153.773 0 226.138 0Z" fill="url(#paint1_linear_55_28)"/>
<path fill-rule="evenodd" clip-rule="evenodd" d="M220.676 99.5977L203.856 69.0181C203.57 69.058 203.278 69.0771 202.982 69.0771C201.904 69.0771 200.888 68.8085 199.995 68.3374L166.242 98.0017C166.731 98.9421 167.065 99.9757 167.22 101.065L216.449 106.017C217.18 103.461 218.677 101.234 220.676 99.5977ZM316.122 140.663C318.981 141.721 321.019 144.478 321.019 147.712C321.019 151.356 318.431 154.392 314.995 155.075C312.886 168.917 307.902 181.811 300.673 193.125C301.276 194.208 301.62 195.454 301.62 196.783C301.62 200.93 298.261 204.29 294.124 204.29C293.575 204.29 293.04 204.231 292.526 204.118C290.873 206.05 289.149 207.92 287.355 209.718C279.486 217.603 270.288 224.158 260.128 229.014C260.163 229.332 260.185 229.654 260.185 229.981C260.185 234.495 256.537 238.154 252.036 238.154C249.267 238.154 246.822 236.772 245.349 234.656C236.637 237.194 227.425 238.555 217.897 238.555C214.499 238.555 211.142 238.381 207.834 238.045C206.829 239.719 204.999 240.839 202.907 240.839C200.184 240.839 197.902 238.941 197.313 236.39C183.633 233.463 171.004 227.684 160.081 219.701C158.453 220.811 156.49 221.458 154.373 221.458C148.754 221.458 144.202 216.896 144.202 211.267C144.202 209.547 144.626 207.926 145.375 206.506C137.307 197.655 130.829 187.324 126.394 175.966C122.72 175.93 119.752 172.935 119.752 169.246C119.752 167 120.848 165.015 122.535 163.794C120.663 156.205 119.669 148.268 119.669 140.098C119.669 133.821 120.255 127.679 121.376 121.728C117.995 120.332 115.614 116.998 115.614 113.105C115.614 107.956 119.776 103.78 124.912 103.78C125.459 103.78 125.995 103.826 126.516 103.916C131.499 91.2781 139.015 79.9214 148.441 70.4753C149.598 69.3134 150.785 68.1825 151.999 67.0811C151.065 65.8113 150.514 64.2463 150.514 62.5485C150.514 58.3332 153.923 54.9124 158.131 54.9124C160.518 54.9124 162.648 56.0153 164.046 57.7397C177.897 48.6213 194.187 42.9194 211.721 41.8283C212.51 39.1959 214.945 37.281 217.828 37.281C220.706 37.281 223.137 39.193 223.93 41.8195C238.98 42.7334 253.117 47.0461 265.584 54C266.214 53.8361 266.874 53.7504 267.553 53.7504C271.397 53.7504 274.598 56.5202 275.275 60.1758C279.576 63.2837 283.615 66.7281 287.355 70.4753C291.683 74.8145 295.609 79.5597 299.073 84.6445C299.877 84.4024 300.729 84.2725 301.609 84.2725C306.479 84.2725 310.428 88.2322 310.428 93.1132C310.428 95.7266 309.296 98.0756 307.498 99.6937C313.041 112.022 316.125 125.699 316.125 140.098L316.122 140.663ZM310.416 154.544C307.831 153.36 306.034 150.748 306.034 147.712C306.034 147.048 306.121 146.404 306.283 145.792L294.728 134.244C294.389 134.426 294.039 134.583 293.672 134.713L296.099 189.535C296.491 189.641 296.87 189.779 297.233 189.947C303.855 179.377 308.436 167.39 310.416 154.544ZM308.84 141.852C309.62 141.222 310.529 140.75 311.52 140.473V140.098C311.52 126.448 308.613 113.479 303.383 101.778C302.81 101.894 302.216 101.956 301.609 101.956C301.309 101.956 301.01 101.94 300.714 101.909L295.323 120.743C297.462 122.144 298.879 124.565 298.879 127.317C298.879 128.643 298.549 129.892 297.97 130.988L308.84 141.852ZM222.335 199.234C223.75 199.234 225.099 199.522 226.325 200.043L243.166 176.744C242.188 175.573 241.487 174.159 241.169 172.605L196.174 170.69C195.814 172.126 195.174 173.45 194.323 174.606L217.402 200.505C218.865 199.696 220.547 199.234 222.335 199.234ZM230.048 202.75C230.77 203.579 231.361 204.525 231.789 205.557C246.661 203.04 274.434 198.32 286.662 196.132C286.693 195.783 286.745 195.442 286.821 195.108L257.039 177.349C255.337 179.061 252.981 180.12 250.377 180.12C249.145 180.12 247.969 179.881 246.889 179.45L230.048 202.75ZM232.552 210.072C232.49 211.193 232.247 212.267 231.854 213.265L246.894 223.64C248.296 222.497 250.087 221.811 252.036 221.811C254.562 221.811 256.818 222.962 258.312 224.77C267.931 220.149 276.642 213.93 284.099 206.455C285.617 204.933 287.085 203.36 288.495 201.736C288.118 201.305 287.789 200.834 287.518 200.325C274.085 202.887 247.106 207.567 232.552 210.072ZM229.249 217.053C227.429 218.726 225.001 219.746 222.335 219.746C220.67 219.746 219.1 219.347 217.711 218.641L207.209 231.269C207.76 231.894 208.18 232.641 208.42 233.463C211.537 233.777 214.698 233.94 217.897 233.94C226.915 233.94 235.636 232.662 243.889 230.275L243.883 229.981C243.883 229.09 244.025 228.232 244.288 227.429L229.249 217.053ZM214.191 215.692C213.379 214.624 212.773 213.388 212.428 212.049L164.339 213.306C164.124 214.368 163.744 215.371 163.226 216.287C173.503 223.708 185.346 229.091 198.157 231.848C199.181 230.339 200.902 229.344 202.856 229.326L214.191 215.692ZM212.31 207.452C212.596 206.028 213.176 204.711 213.983 203.568L190.903 177.666C189.253 178.621 187.338 179.169 185.298 179.169C183.687 179.169 182.157 178.83 180.774 178.217L162.005 204.527C163.046 205.71 163.816 207.136 164.221 208.71L212.31 207.452ZM296.406 100.252C294.214 98.6424 292.79 96.0439 292.79 93.1132C292.79 90.7835 293.691 88.6633 295.161 87.085C291.887 82.297 288.181 77.8293 284.099 73.7382C281.092 70.7233 277.878 67.9108 274.484 65.3271C273.936 66.3517 273.172 67.2419 272.248 67.9329L290.68 119.479L290.901 119.471L296.406 100.252ZM289.168 191.149C289.851 190.545 290.644 190.063 291.514 189.739L289.087 134.918C288.567 134.782 288.069 134.594 287.596 134.362L258.297 165.613C259.237 167.081 259.78 168.826 259.78 170.696C259.78 171.632 259.643 172.537 259.39 173.391L289.168 191.149ZM165.392 64.862C164.635 67.2464 162.742 69.1244 160.35 69.8538L160.116 93.1147C161.242 93.4026 162.289 93.8928 163.215 94.5424L196.968 64.8797L196.93 64.7764C186.446 64.8413 175.947 64.8723 165.392 64.862ZM130.717 105.819C131.524 106.467 132.222 107.244 132.776 108.122L148.162 103.114C148.146 102.886 148.139 102.655 148.139 102.422C148.139 100.219 148.879 98.1892 150.126 96.5666L141.537 85.7858C137.165 91.9513 133.516 98.672 130.717 105.819ZM134.195 112.505C134.208 112.702 134.214 112.903 134.214 113.105C134.214 115.79 133.083 118.208 131.271 119.908L143.518 142.211L152.871 110.713C151.532 109.923 150.402 108.818 149.582 107.497L134.195 112.505ZM127.244 122.133C126.821 122.243 126.387 122.321 125.942 122.368C124.848 128.11 124.273 134.038 124.273 140.098C124.273 147.835 125.208 155.353 126.969 162.543C127.68 162.598 128.359 162.763 128.992 163.022L141.394 147.897L127.244 122.133ZM132.393 166.113C132.885 167.048 133.164 168.114 133.164 169.246C133.164 171.327 132.218 173.188 130.733 174.422C134.894 185.026 140.924 194.687 148.418 202.998C149.065 202.529 149.769 202.133 150.52 201.826L142.702 153.54L132.393 166.113ZM155.052 201.093C156.187 201.167 157.269 201.427 158.272 201.844L177.04 175.537C175.202 173.534 174.079 170.862 174.079 167.925C174.079 166.997 174.193 166.097 174.403 165.236L147.124 152.123L155.052 201.093ZM284.248 131.209C283.621 130.108 283.251 128.838 283.222 127.484L240.306 115.249C239.176 117.55 237.382 119.461 235.171 120.734L249.502 161.312C249.79 161.285 250.081 161.272 250.377 161.272C252.037 161.272 253.596 161.703 254.949 162.459L284.248 131.209ZM284.481 123.049C284.986 122.271 285.622 121.586 286.362 121.031L267.928 69.4832L267.553 69.4935C266.51 69.4935 265.516 69.2883 264.606 68.9191L238.522 101.184C240.454 103.436 241.622 106.364 241.622 109.57C241.622 109.99 241.602 110.407 241.563 110.816L284.481 123.049ZM166.766 105.642C166.126 107.448 164.965 109.005 163.463 110.129L183.138 156.885C183.836 156.75 184.559 156.676 185.298 156.676C186.988 156.676 188.59 157.051 190.028 157.722L219.384 118.328C217.473 116.265 216.227 113.572 215.994 110.594L166.766 105.642ZM159.238 111.918C158.745 111.995 158.244 112.037 157.73 112.037C157.58 112.037 157.428 112.032 157.278 112.025L146.916 146.927L176.387 161.093C177.097 160.162 177.952 159.345 178.915 158.675L159.238 111.918ZM153.718 93.6935C154.295 93.4277 154.901 93.2166 155.531 93.0675L155.762 69.8951C154.369 71.1367 153.011 72.4183 151.694 73.7382C149.102 76.3367 146.661 79.0902 144.384 81.9781L153.718 93.6935ZM241.363 168.011C241.995 165.877 243.362 164.058 245.168 162.852L230.836 122.271C230.169 122.379 229.484 122.434 228.788 122.434C226.733 122.434 224.791 121.949 223.07 121.09L193.712 160.485C195.076 162.036 196.02 163.963 196.367 166.094L241.363 168.011ZM223.582 46.4245C222.557 48.5771 220.365 50.0623 217.828 50.0623C217.177 50.0623 216.551 49.9649 215.961 49.7848L208.481 59.349C208.654 59.6384 208.805 59.9441 208.933 60.2614L260.007 59.4421C260.272 58.5164 260.704 57.6585 261.265 56.907C249.881 50.932 237.12 47.238 223.582 46.4245ZM212.351 46.9486C212.251 46.7817 212.158 46.609 212.073 46.4304C196.202 47.4077 181.401 52.3479 168.641 60.2733L197.001 60.3427C197.927 57.9346 200.254 56.2278 202.982 56.2278C203.639 56.2278 204.274 56.3268 204.872 56.5113L212.351 46.9486ZM209.065 64.6848C208.806 65.4643 208.403 66.1789 207.884 66.7946L224.702 97.3683C225.985 96.9372 227.359 96.7025 228.788 96.7025C231.023 96.7025 233.127 97.2768 234.957 98.2836L261.043 66.0239C260.635 65.4186 260.309 64.7512 260.079 64.041C242.97 64.3113 226.02 64.5357 209.065 64.6848Z" fill="url(#paint2_linear_55_28)"/>
<path fill-rule="evenodd" clip-rule="evenodd" d="M64 151.066C78.3873 153.681 92.2959 144.022 94.9059 129.601H94.9074C92.2974 144.023 101.933 157.963 116.32 160.579V160.581C101.933 157.965 88.026 167.625 85.4145 182.046C88.0245 167.624 78.3873 153.684 64 151.066Z" fill="url(#paint3_linear_55_28)"/>
<path fill-rule="evenodd" clip-rule="evenodd" d="M90.7363 210.453L90.7349 210.452C101.892 212.48 112.677 204.99 114.7 193.808C112.678 204.992 120.149 215.801 131.306 217.83C120.149 215.801 109.366 223.292 107.34 234.476V234.474C109.364 223.292 101.892 212.482 90.7363 210.453Z" fill="url(#paint4_linear_55_28)"/>
<path fill-rule="evenodd" clip-rule="evenodd" d="M137.97 249.091C145.642 250.486 153.06 245.335 154.452 237.645C153.061 245.336 158.199 252.771 165.872 254.165C158.199 252.771 150.783 257.923 149.389 265.613C150.781 257.923 145.642 250.487 137.97 249.091Z" fill="url(#paint5_linear_55_28)"/>
<path d="M95 372.142H111V300H95.7273H95V372.142Z" fill="#5D1987"/>
<defs>
<linearGradient id="paint0_linear_55_28" x1="319.452" y1="273.791" x2="344.573" y2="25.2047" gradientUnits="userSpaceOnUse">
<stop stop-color="#4A1F6E"/>
<stop offset="0.5" stop-color="#5D1987"/>
<stop offset="0.75" stop-color="#962CCF"/>
<stop offset="1" stop-color="#DD8FF9"/>
</linearGradient>
<linearGradient id="paint1_linear_55_28" x1="151.877" y1="45.2684" x2="229.826" y2="-47.2547" gradientUnits="userSpaceOnUse">
<stop stop-color="#DD8FF9"/>
<stop offset="0.508825" stop-color="#A748DF"/>
<stop offset="0.77" stop-color="#31084A"/>
</linearGradient>
<linearGradient id="paint2_linear_55_28" x1="160.099" y1="215.374" x2="287.262" y2="69.4989" gradientUnits="userSpaceOnUse">
<stop stop-color="#4A1F6E"/>
<stop offset="1" stop-color="#DD8FF9"/>
</linearGradient>
<linearGradient id="paint3_linear_55_28" x1="75.3311" y1="175.486" x2="108.144" y2="138.273" gradientUnits="userSpaceOnUse">
<stop stop-color="#31084A"/>
<stop offset="1" stop-color="#DD8FF9"/>
</linearGradient>
<linearGradient id="paint4_linear_55_28" x1="99.5214" y1="229.388" x2="124.965" y2="200.532" gradientUnits="userSpaceOnUse">
<stop stop-color="#4A1F6E"/>
<stop offset="1" stop-color="#DD8FF9"/>
</linearGradient>
<linearGradient id="paint5_linear_55_28" x1="144.013" y1="262.115" x2="161.511" y2="242.269" gradientUnits="userSpaceOnUse">
<stop stop-color="#31084A"/>
<stop offset="1" stop-color="#A748DF"/>
</linearGradient>
</defs>
</svg>
