<svg width="298" height="273" viewBox="0 0 298 273" fill="none" xmlns="http://www.w3.org/2000/svg">
<path fill-rule="evenodd" clip-rule="evenodd" d="M162.139 272.755C141.58 272.755 122.091 268.174 104.618 259.99C118.476 265.36 133.535 268.31 149.284 268.31C217.744 268.31 273.239 212.681 273.239 144.059C273.239 75.4361 217.744 19.8076 149.284 19.8076C140.524 19.8076 131.98 20.7215 123.733 22.4549C127.059 21.4937 130.436 20.6521 133.862 19.9375C188.027 8.62957 243.71 30.6977 275.517 76.0739C336.728 163.404 262.934 272.755 162.139 272.755ZM246.905 233.178C256.909 224.592 265.652 214.431 272.688 202.926C296.555 163.903 295.365 118.488 268.901 80.7335C264.073 73.846 258.653 67.5255 252.743 61.8147C270.636 84.3995 281.324 112.979 281.324 144.059C281.324 178.386 268.286 209.66 246.905 233.178Z" fill="url(#paint0_linear_51_18)"/>
<path fill-rule="evenodd" clip-rule="evenodd" d="M162.138 0C212.026 0 255.635 26.9181 279.315 67.0531C246.571 20.8751 189.231 -1.17376 133.907 11.4644C89.5514 21.597 53.6666 52.3892 36.2584 92.9761C31.3227 103.929 27.9276 115.728 26.3442 128.096C30.6171 56.6339 89.7734 0 162.138 0Z" fill="url(#paint1_linear_51_18)"/>
<path fill-rule="evenodd" clip-rule="evenodd" d="M156.676 99.5979L139.856 69.0183C139.57 69.0582 139.278 69.0774 138.982 69.0774C137.904 69.0774 136.888 68.8087 135.995 68.3377L102.242 98.0019C102.731 98.9424 103.065 99.9759 103.22 101.066L152.449 106.018C153.18 103.461 154.677 101.234 156.676 99.5979ZM252.122 140.663C254.981 141.722 257.019 144.478 257.019 147.712C257.019 151.356 254.431 154.393 250.995 155.075C248.886 168.917 243.902 181.811 236.673 193.125C237.276 194.208 237.62 195.454 237.62 196.784C237.62 200.931 234.261 204.29 230.124 204.29C229.575 204.29 229.04 204.231 228.526 204.118C226.873 206.051 225.149 207.92 223.355 209.718C215.486 217.603 206.288 224.158 196.128 229.014C196.163 229.332 196.185 229.654 196.185 229.982C196.185 234.495 192.537 238.154 188.036 238.154C185.267 238.154 182.822 236.772 181.349 234.656C172.637 237.194 163.425 238.555 153.897 238.555C150.499 238.555 147.142 238.382 143.834 238.045C142.829 239.719 140.999 240.84 138.907 240.84C136.184 240.84 133.902 238.941 133.313 236.39C119.633 233.463 107.004 227.684 96.0806 219.701C94.4526 220.811 92.4896 221.458 90.3726 221.458C84.7536 221.458 80.2016 216.897 80.2016 211.267C80.2016 209.547 80.6256 207.926 81.3746 206.506C73.3066 197.656 66.8286 187.324 62.3936 175.966C58.7203 175.93 55.7524 172.935 55.7524 169.246C55.7524 167.001 56.8482 165.015 58.5347 163.794C56.6627 156.205 55.6685 148.268 55.6685 140.099C55.6685 133.822 56.2547 127.679 57.3756 121.728C53.9952 120.333 51.6135 116.999 51.6135 113.105C51.6135 107.956 55.776 103.78 60.9116 103.78C61.4586 103.78 61.9946 103.826 62.5156 103.917C67.4986 91.2783 75.0146 79.9217 84.4406 70.4756C85.5976 69.3136 86.7846 68.1827 87.9986 67.0813C87.0646 65.8116 86.5136 64.2466 86.5136 62.5487C86.5136 58.3335 89.9226 54.9126 94.1306 54.9126C96.5176 54.9126 98.6476 56.0156 100.046 57.74C113.897 48.6216 130.187 42.9197 147.721 41.8286C148.51 39.1961 150.945 37.2812 153.828 37.2812C156.706 37.2812 159.137 39.1932 159.93 41.8198C174.98 42.7336 189.117 47.0463 201.584 54.0003C202.214 53.8364 202.874 53.7507 203.553 53.7507C207.397 53.7507 210.598 56.5205 211.275 60.1761C215.576 63.284 219.615 66.7284 223.355 70.4756C227.683 74.8147 231.609 79.5599 235.073 84.6447C235.877 84.4026 236.729 84.2727 237.609 84.2727C242.479 84.2727 246.428 88.2325 246.428 93.1135C246.428 95.7268 245.296 98.0758 243.498 99.694C249.041 112.022 252.125 125.699 252.125 140.099L252.122 140.663ZM246.416 154.544C243.831 153.36 242.034 150.748 242.034 147.712C242.034 147.048 242.121 146.405 242.283 145.792L230.728 134.245C230.389 134.426 230.039 134.584 229.672 134.713L232.099 189.535C232.491 189.642 232.87 189.779 233.233 189.947C239.855 179.377 244.436 167.391 246.416 154.544ZM244.84 141.852C245.62 141.222 246.529 140.75 247.52 140.474V140.099C247.52 126.448 244.613 113.479 239.383 101.778C238.81 101.895 238.216 101.956 237.609 101.956C237.309 101.956 237.01 101.94 236.714 101.91L231.323 120.744C233.462 122.144 234.879 124.566 234.879 127.317C234.879 128.643 234.549 129.892 233.97 130.988L244.84 141.852ZM158.335 199.234C159.75 199.234 161.099 199.522 162.325 200.043L179.166 176.744C178.188 175.573 177.487 174.159 177.169 172.605L132.174 170.69C131.814 172.126 131.174 173.45 130.323 174.606L153.402 200.505C154.865 199.697 156.547 199.234 158.335 199.234ZM166.048 202.75C166.77 203.579 167.361 204.525 167.789 205.558C182.661 203.041 210.434 198.32 222.662 196.132C222.693 195.783 222.745 195.442 222.821 195.109L193.039 177.349C191.337 179.061 188.981 180.12 186.377 180.12C185.145 180.12 183.969 179.881 182.889 179.45L166.048 202.75ZM168.552 210.072C168.49 211.193 168.247 212.268 167.854 213.265L182.894 223.641C184.296 222.497 186.087 221.811 188.036 221.811C190.562 221.811 192.818 222.962 194.312 224.77C203.931 220.149 212.642 213.93 220.099 206.456C221.617 204.933 223.085 203.36 224.495 201.736C224.118 201.305 223.789 200.834 223.518 200.325C210.085 202.887 183.106 207.567 168.552 210.072ZM165.249 217.053C163.429 218.726 161.001 219.746 158.335 219.746C156.67 219.746 155.1 219.347 153.711 218.642L143.209 231.27C143.76 231.894 144.18 232.641 144.42 233.463C147.537 233.778 150.698 233.94 153.897 233.94C162.915 233.94 171.636 232.662 179.889 230.275L179.883 229.982C179.883 229.091 180.025 228.233 180.288 227.43L165.249 217.053ZM150.191 215.693C149.379 214.624 148.773 213.388 148.428 212.049L100.339 213.306C100.124 214.368 99.7436 215.371 99.2256 216.287C109.503 223.709 121.346 229.092 134.157 231.848C135.181 230.34 136.902 229.344 138.856 229.326L150.191 215.693ZM148.31 207.452C148.596 206.029 149.176 204.712 149.983 203.568L126.903 177.666C125.253 178.621 123.338 179.17 121.298 179.17C119.687 179.17 118.157 178.83 116.774 178.217L98.0046 204.527C99.0456 205.71 99.8156 207.136 100.221 208.71L148.31 207.452ZM232.406 100.252C230.214 98.6427 228.79 96.0442 228.79 93.1135C228.79 90.7837 229.691 88.6636 231.161 87.0852C227.887 82.2972 224.181 77.8296 220.099 73.7384C217.092 70.7236 213.878 67.9111 210.484 65.3273C209.936 66.352 209.172 67.2422 208.248 67.9331L226.68 119.48L226.901 119.472L232.406 100.252ZM225.168 191.149C225.851 190.545 226.644 190.064 227.514 189.739L225.087 134.918C224.567 134.782 224.069 134.595 223.596 134.362L194.297 165.613C195.237 167.081 195.78 168.826 195.78 170.697C195.78 171.633 195.643 172.537 195.39 173.391L225.168 191.149ZM101.392 64.8622C100.635 67.2466 98.7416 69.1247 96.3496 69.854L96.1156 93.115C97.2416 93.4029 98.2886 93.893 99.2146 94.5427L132.968 64.88L132.93 64.7766C122.446 64.8416 111.947 64.8725 101.392 64.8622ZM66.7166 105.819C67.5236 106.468 68.2216 107.244 68.7756 108.123L84.1616 103.115C84.1456 102.886 84.1386 102.656 84.1386 102.422C84.1386 100.22 84.8786 98.1895 86.1256 96.5668L77.5366 85.786C73.1646 91.9515 69.5156 98.6722 66.7166 105.819ZM70.1946 112.505C70.2076 112.702 70.2136 112.903 70.2136 113.105C70.2136 115.79 69.0826 118.209 67.2706 119.909L79.5176 142.212L88.8706 110.714C87.5316 109.923 86.4016 108.818 85.5816 107.497L70.1946 112.505ZM63.2436 122.133C62.8206 122.243 62.3866 122.321 61.9416 122.368C60.8476 128.11 60.2726 134.038 60.2726 140.099C60.2726 147.835 61.2076 155.353 62.9686 162.543C63.6796 162.598 64.3586 162.764 64.9916 163.022L77.3936 147.897L63.2436 122.133ZM68.3926 166.114C68.8846 167.048 69.1636 168.114 69.1636 169.246C69.1636 171.327 68.2176 173.188 66.7326 174.422C70.8936 185.027 76.9236 194.688 84.4176 202.998C85.0646 202.529 85.7686 202.133 86.5196 201.827L78.7016 153.541L68.3926 166.114ZM91.0516 201.093C92.1866 201.167 93.2686 201.428 94.2716 201.845L113.04 175.537C111.202 173.534 110.079 170.862 110.079 167.925C110.079 166.998 110.193 166.098 110.403 165.237L83.1236 152.123L91.0516 201.093ZM220.248 131.209C219.621 130.108 219.251 128.838 219.222 127.485L176.306 115.249C175.176 117.55 173.382 119.462 171.171 120.735L185.502 161.312C185.79 161.285 186.081 161.272 186.377 161.272C188.037 161.272 189.596 161.703 190.949 162.459L220.248 131.209ZM220.481 123.049C220.986 122.271 221.622 121.587 222.362 121.031L203.928 69.4834L203.553 69.4937C202.51 69.4937 201.516 69.2886 200.606 68.9194L174.522 101.184C176.454 103.436 177.622 106.364 177.622 109.57C177.622 109.99 177.602 110.407 177.563 110.816L220.481 123.049ZM102.766 105.643C102.126 107.448 100.965 109.006 99.4626 110.129L119.138 156.886C119.836 156.75 120.559 156.676 121.298 156.676C122.988 156.676 124.59 157.051 126.028 157.723L155.384 118.328C153.473 116.265 152.227 113.572 151.994 110.594L102.766 105.643ZM95.2376 111.919C94.7446 111.996 94.2436 112.037 93.7296 112.037C93.5796 112.037 93.4276 112.032 93.2776 112.025L82.9156 146.927L112.387 161.094C113.097 160.162 113.952 159.345 114.915 158.675L95.2376 111.919ZM89.7176 93.6938C90.2946 93.4279 90.9006 93.2168 91.5306 93.0678L91.7616 69.8953C90.3686 71.137 89.0106 72.4185 87.6936 73.7384C85.1016 76.3369 82.6606 79.0905 80.3836 81.9784L89.7176 93.6938ZM177.363 168.011C177.995 165.877 179.362 164.059 181.168 162.852L166.836 122.271C166.169 122.379 165.484 122.435 164.788 122.435C162.733 122.435 160.791 121.949 159.07 121.09L129.712 160.485C131.076 162.036 132.02 163.963 132.367 166.095L177.363 168.011ZM159.582 46.4247C158.557 48.5773 156.365 50.0626 153.828 50.0626C153.177 50.0626 152.551 49.9651 151.961 49.785L144.481 59.3493C144.654 59.6387 144.805 59.9443 144.933 60.2617L196.007 59.4423C196.272 58.5166 196.704 57.6588 197.265 56.9073C185.881 50.9323 173.12 47.2383 159.582 46.4247ZM148.351 46.9489C148.251 46.782 148.158 46.6093 148.073 46.4306C132.202 47.408 117.401 52.3481 104.641 60.2735L133.001 60.343C133.927 57.9348 136.254 56.2281 138.982 56.2281C139.639 56.2281 140.274 56.327 140.872 56.5115L148.351 46.9489ZM145.065 64.685C144.806 65.4646 144.403 66.1792 143.884 66.7948L160.702 97.3685C161.985 96.9375 163.359 96.7027 164.788 96.7027C167.023 96.7027 169.127 97.277 170.957 98.2839L197.043 66.0242C196.635 65.4188 196.309 64.7515 196.079 64.0413C178.97 64.3115 162.02 64.5359 145.065 64.685Z" fill="url(#paint2_linear_51_18)"/>
<path fill-rule="evenodd" clip-rule="evenodd" d="M0 151.066C14.3873 153.681 28.2959 144.022 30.9059 129.601H30.9074C28.2974 144.023 37.9331 157.963 52.3205 160.579V160.581C37.9331 157.965 24.026 167.625 21.4145 182.046C24.0245 167.624 14.3873 153.684 0 151.066Z" fill="url(#paint3_linear_51_18)"/>
<path fill-rule="evenodd" clip-rule="evenodd" d="M26.7363 210.453L26.7349 210.452C37.8921 212.48 48.6767 204.99 50.7005 193.809C48.6782 204.992 56.1487 215.801 67.3057 217.83C56.1487 215.801 45.3656 223.292 43.3404 234.476V234.474C45.3641 223.292 37.8921 212.482 26.7363 210.453Z" fill="url(#paint4_linear_51_18)"/>
<path fill-rule="evenodd" clip-rule="evenodd" d="M73.9697 249.091C81.6417 250.486 89.0597 245.335 90.4517 237.645C89.0607 245.336 94.1987 252.771 101.872 254.165C94.1987 252.771 86.7827 257.923 85.3887 265.613C86.7807 257.923 81.6417 250.487 73.9697 249.091Z" fill="url(#paint5_linear_51_18)"/>
<defs>
<linearGradient id="paint0_linear_51_18" x1="255.452" y1="273.791" x2="280.573" y2="25.2047" gradientUnits="userSpaceOnUse">
<stop stop-color="#4A1F6E"/>
<stop offset="0.5" stop-color="#5D1987"/>
<stop offset="0.75" stop-color="#962CCF"/>
<stop offset="1" stop-color="#DD8FF9"/>
</linearGradient>
<linearGradient id="paint1_linear_51_18" x1="87.8774" y1="45.2684" x2="165.826" y2="-47.2547" gradientUnits="userSpaceOnUse">
<stop stop-color="#DD8FF9"/>
<stop offset="0.508825" stop-color="#A748DF"/>
<stop offset="0.77" stop-color="#31084A"/>
</linearGradient>
<linearGradient id="paint2_linear_51_18" x1="96.0986" y1="215.374" x2="223.262" y2="69.4991" gradientUnits="userSpaceOnUse">
<stop stop-color="#4A1F6E"/>
<stop offset="1" stop-color="#DD8FF9"/>
</linearGradient>
<linearGradient id="paint3_linear_51_18" x1="11.3311" y1="175.486" x2="44.1438" y2="138.273" gradientUnits="userSpaceOnUse">
<stop stop-color="#31084A"/>
<stop offset="1" stop-color="#DD8FF9"/>
</linearGradient>
<linearGradient id="paint4_linear_51_18" x1="35.5214" y1="229.388" x2="60.9649" y2="200.533" gradientUnits="userSpaceOnUse">
<stop stop-color="#4A1F6E"/>
<stop offset="1" stop-color="#DD8FF9"/>
</linearGradient>
<linearGradient id="paint5_linear_51_18" x1="80.0127" y1="262.115" x2="97.5106" y2="242.269" gradientUnits="userSpaceOnUse">
<stop stop-color="#31084A"/>
<stop offset="1" stop-color="#A748DF"/>
</linearGradient>
</defs>
</svg>
