<svg width="722" height="426" viewBox="0 0 722 426" fill="none" xmlns="http://www.w3.org/2000/svg">
<path d="M603.118 216.624C613.304 209.072 627.111 203.404 640.566 201.253C642.216 200.989 649.866 200.92 657.566 201.101C667.931 201.343 673.643 201.987 679.566 203.581C694.603 207.629 708.684 216.007 717.294 226.03L721.023 230.37L709.794 240.236C695.631 252.68 696.076 252.249 696.614 252.984C696.862 253.324 696.758 253.37 696.382 253.085C696.005 252.801 694.271 253.951 692.527 255.641L689.357 258.714L683.606 253.099C675.965 245.64 668.917 242.48 658.566 241.876C651.956 241.49 649.538 241.797 644.647 243.641C629.609 249.312 621.467 265.274 624.109 283.905C626.302 299.366 634.219 308.467 648.816 312.305C655.494 314.06 663.7 313.531 670.237 310.923C675.626 308.773 682.873 303.746 683.583 301.666C683.876 300.806 685.238 299.289 686.608 298.294C689.012 296.548 689.18 296.548 691.394 298.294C698.433 303.843 720.066 324.172 720.066 325.236C720.066 326.563 711.31 335.215 705.824 339.309C704.032 340.647 702.69 342.193 702.841 342.746C702.992 343.299 702.671 343.477 702.128 343.141C701.585 342.806 698.891 343.671 696.141 345.065C678.538 353.985 653.567 356.76 633.23 352.057C629.745 351.251 626.413 350.889 625.825 351.252C625.238 351.615 625.02 351.487 625.341 350.967C625.662 350.447 623.678 349.224 620.932 348.249C609.14 344.061 593.678 332.443 587.106 322.832C577.195 308.34 574.126 299.117 573.36 281.53C572.5 261.76 576.062 248.22 585.874 233.966C591.284 226.106 593.96 223.415 603.118 216.624Z" fill="white"/>
<path d="M282.066 277.77C282.066 237.711 282.366 204.636 282.733 204.27C283.099 203.903 310.099 203.603 342.733 203.603H402.066V222.603V241.603H367.066H332.066V250.103V258.603H363.066H394.066V276.603V294.603H363.066H332.066V303.603V312.603H368.566H405.066V331.603V350.603H343.566H282.066V277.77Z" fill="white"/>
<path d="M283.066 378.603V374.103V369.603H502.066H721.066V374.103V378.603H502.066H283.066Z" fill="white"/>
<path d="M353.816 418.355C352.934 418.062 352.483 414.509 352.284 406.271C352.044 396.336 352.23 394.603 353.534 394.603C354.825 394.603 355.066 396.501 355.066 406.686C355.066 415.908 354.77 418.671 353.816 418.355Z" fill="white"/>
<path d="M409.408 397.928C408.504 398.832 405.955 396.591 406.636 395.49C407.488 394.111 410.066 394.447 410.066 395.936C410.066 396.67 409.77 397.566 409.408 397.928Z" fill="white"/>
<path d="M416.816 418.355C415.934 418.062 415.483 414.509 415.284 406.271C415.044 396.336 415.23 394.603 416.534 394.603C417.825 394.603 418.066 396.501 418.066 406.686C418.066 415.908 417.77 418.671 416.816 418.355Z" fill="white"/>
<path d="M282.566 418.103L282.283 406.853L282 395.603H289.533C295.562 395.603 297.066 395.902 297.066 397.103C297.066 398.27 295.733 398.603 291.066 398.603H285.066V402.103V405.603H290.566C294.788 405.603 296.066 405.951 296.066 407.103C296.066 408.255 294.788 408.603 290.566 408.603H285.066V412.103V415.603H291.566C296.756 415.603 298.066 415.914 298.066 417.145C298.066 418.427 296.758 418.638 290.316 418.395L282.566 418.103Z" fill="white"/>
<path d="M533.631 417.493C524.372 414.937 523.542 400.184 532.454 396.583C537.986 394.348 548.374 397.44 544.135 400.06C543.623 400.377 542.922 400.178 542.576 399.619C542.231 399.06 539.982 398.603 537.58 398.603C534.051 398.603 532.813 399.11 531.139 401.238C528.704 404.333 528.449 409.277 530.567 412.301C532.52 415.089 537.387 416.127 541.164 414.562C544.5 413.181 545.939 413.846 544.186 415.958C542.503 417.987 537.862 418.662 533.631 417.493Z" fill="white"/>
<path d="M690.079 398.582C688.953 400.404 687.606 399.244 688.411 397.146C689.082 395.398 692.613 395.061 693.596 396.652C694.038 397.366 694.701 397.321 695.679 396.509C697.41 395.072 698.539 395.929 697.721 398.06C697.009 399.915 693.946 400.083 692.224 398.361C691.236 397.373 690.799 397.418 690.079 398.582Z" fill="white"/>
<path d="M440.639 401.929C441.229 401.475 442.002 400.315 442.358 399.353C443.237 396.969 445.066 397.138 445.066 399.603C445.066 401.07 445.733 401.603 447.566 401.603C448.941 401.603 450.066 402.053 450.066 402.603C450.066 403.153 448.919 403.603 447.516 403.603C445.044 403.603 444.975 403.778 445.266 409.353C445.55 414.796 445.713 415.12 448.316 415.419C451.354 415.769 451.937 417.055 449.484 417.996C447.003 418.948 446.206 418.743 444.066 416.603C442.558 415.095 442.066 413.27 442.066 409.186C442.066 405.79 441.6 403.58 440.816 403.262C439.948 402.91 439.893 402.503 440.639 401.929Z" fill="white"/>
<path d="M638.639 401.929C639.229 401.475 640.002 400.315 640.358 399.353C641.237 396.969 643.066 397.138 643.066 399.603C643.066 401.07 643.733 401.603 645.566 401.603C646.941 401.603 648.066 402.053 648.066 402.603C648.066 403.153 646.919 403.603 645.516 403.603C643.044 403.603 642.975 403.778 643.266 409.353C643.55 414.796 643.713 415.12 646.316 415.419C649.318 415.765 649.945 417.052 647.557 417.968C645.466 418.77 641.47 417.097 640.702 415.098C640.352 414.186 640.066 411.264 640.066 408.605C640.066 405.674 639.574 403.57 638.816 403.262C637.948 402.91 637.893 402.503 638.639 401.929Z" fill="white"/>
<path d="M620.048 414.056C618.952 411.173 618.713 402.289 619.705 401.297C621.138 399.865 622.066 402 622.066 406.728C622.066 412.943 623.408 415.603 626.544 415.603C629.952 415.603 632.066 412.04 632.066 406.297C632.066 402.855 632.431 401.557 633.316 401.85C634.943 402.388 635.602 416.467 634.071 417.998C633.287 418.782 632.76 418.725 632.184 417.793C631.569 416.799 630.822 416.757 628.947 417.611C625.633 419.121 621.319 417.398 620.048 414.056Z" fill="white"/>
<path d="M301.316 409.294C299.475 408.102 299.796 403.86 301.816 402.683C305.011 400.822 312.066 401.609 312.066 403.827C312.066 404.388 310.849 404.604 309.327 404.312C306.448 403.762 303.066 405.01 303.066 406.624C303.066 407.147 305.096 408.085 307.577 408.71C311.022 409.578 312.231 410.412 312.689 412.238C313.428 415.182 311.804 417.282 308.171 418.08C304.688 418.845 300.066 417.141 300.066 415.093C300.066 413.83 300.457 413.742 302.115 414.629C304.878 416.108 309.566 415.482 309.566 413.635C309.566 412.821 308.008 411.708 306.066 411.135C304.141 410.567 302.004 409.739 301.316 409.294Z" fill="white"/>
<path d="M315.066 409.241C315.066 406.659 315.753 405.208 317.701 403.676C320.958 401.113 325.122 401.018 328.109 403.437C330.062 405.018 330.15 405.357 328.752 405.893C327.86 406.236 326.864 406.085 326.539 405.559C325.452 403.801 320.196 404.492 319.101 406.537C316.073 412.196 320.095 417.278 325.613 414.764C328.83 413.298 329.066 413.31 329.066 414.942C329.066 417.343 324.224 418.81 320.432 417.559C316.476 416.253 315.066 414.068 315.066 409.241Z" fill="white"/>
<path d="M408.316 418.356C407.381 418.665 407.066 416.607 407.066 410.186C407.066 403.123 407.339 401.603 408.606 401.603C409.892 401.603 410.099 402.956 409.856 409.773C409.663 415.202 409.147 418.081 408.316 418.356Z" fill="white"/>
<path d="M568.566 418.603C567.35 418.603 567.066 416.992 567.066 410.103C567.066 403.214 567.35 401.603 568.566 401.603C569.391 401.603 570.066 402.143 570.066 402.803C570.066 403.736 570.333 403.736 571.266 402.803C572.766 401.303 578.296 401.233 579.759 402.696C580.549 403.486 581.416 403.486 582.893 402.696C586.033 401.015 589.857 401.394 592.066 403.603C593.656 405.193 594.066 406.936 594.066 412.103C594.066 417.123 593.735 418.603 592.612 418.603C591.512 418.603 591.085 416.957 590.862 411.853C590.57 405.199 590.524 405.098 587.615 404.767C583.616 404.312 582.066 406.716 582.066 413.377C582.066 420.084 579.701 420.21 579.302 413.525C578.834 405.665 578.331 404.603 575.082 404.603C571.356 404.603 570.066 406.9 570.066 413.537C570.066 417.373 569.702 418.603 568.566 418.603Z" fill="white"/>
<path d="M668.725 407.909C669.076 406.916 670.295 405.069 671.433 403.806C673.048 402.014 674.367 401.575 677.432 401.806C679.796 401.985 681.787 402.781 682.429 403.805C683.73 405.881 682.494 407.431 680.849 405.786C679.531 404.468 675.2 404.231 673.395 405.378C672.751 405.788 671.925 407.317 671.559 408.776C671.06 410.763 671.441 411.978 673.077 413.614C675.207 415.744 677.173 415.866 681.316 414.125C682.535 413.612 683.066 413.847 683.066 414.898C683.066 415.728 681.647 416.902 679.912 417.507C676.935 418.545 676.851 418.708 678.412 420.433C679.322 421.438 680.066 422.547 680.066 422.897C680.066 424.104 676.207 425.594 674.638 424.992C672.325 424.105 672.72 422.358 675.066 423.103C676.213 423.467 677.066 423.283 677.066 422.67C677.066 422.083 676.616 421.603 676.066 421.603C675.516 421.603 675.066 420.733 675.066 419.67C675.066 418.588 674.146 417.446 672.975 417.074C670.504 416.29 667.813 410.486 668.725 407.909Z" fill="white"/>
<path fill-rule="evenodd" clip-rule="evenodd" d="M423.816 204.177C423.403 204.595 423.066 237.711 423.066 277.77V350.603H448.566H474.066V333.258V315.913L490.561 315.237C499.633 314.865 510.545 313.839 514.811 312.958C537.259 308.316 554.582 293.365 559.676 274.235C561.263 268.274 561.464 252.039 560.027 245.812C556.44 230.261 543.062 215.605 527.066 209.702C513.192 204.582 511.015 204.373 466.566 203.882C443.466 203.627 424.229 203.76 423.816 204.177ZM474.066 276.908V259.756V242.603H483.517C500.858 242.603 507.658 245.661 510.048 254.536C512.321 262.977 508.665 271.201 501.265 274.293C499.378 275.082 492.586 275.977 485.968 276.31L474.066 276.908Z" fill="white"/>
<path fill-rule="evenodd" clip-rule="evenodd" d="M455.979 402.885C451.656 406.204 451.023 411.279 454.436 415.247C459.386 421.001 469.066 417.199 469.066 409.502C469.066 403.458 460.726 399.241 455.979 402.885ZM455.066 410.481C455.066 409.376 455.532 407.601 456.101 406.537C457.288 404.32 462.912 403.849 464.866 405.803C467.667 408.604 465.001 415.603 461.134 415.603C458.542 415.603 455.066 412.669 455.066 410.481Z" fill="white"/>
<path fill-rule="evenodd" clip-rule="evenodd" d="M424.355 403.853C421.314 407.175 420.751 410.092 422.497 413.47C424.613 417.561 429.859 419.278 433.884 417.197C437.23 415.467 438.066 413.847 438.066 409.094C438.066 402.538 428.801 398.996 424.355 403.853ZM424.066 410.103C424.066 409.278 424.966 407.703 426.066 406.603C428.303 404.366 432.045 403.982 433.866 405.803C434.526 406.463 435.066 408.472 435.066 410.268C435.066 413.575 433 415.603 429.632 415.603C427.64 415.603 424.066 412.071 424.066 410.103Z" fill="white"/>
<path fill-rule="evenodd" clip-rule="evenodd" d="M335.225 403.204C329.973 406.883 330.521 414.235 336.268 417.208C338.623 418.425 339.856 418.497 342.635 417.58C348.325 415.703 349.946 409.262 345.993 404.238C343.564 401.149 338.811 400.693 335.225 403.204ZM342.973 414.653C337.72 417.464 332.257 412.013 335.447 407.144C337.258 404.38 341.731 403.668 343.866 405.803C345.902 407.839 345.342 413.385 342.973 414.653Z" fill="white"/>
<path fill-rule="evenodd" clip-rule="evenodd" d="M493.066 399.138C493.066 403.312 492.912 403.591 491.132 402.638C483.823 398.727 476.055 407.109 480.058 414.589C481.532 417.341 487.394 419.033 490.219 417.521C491.888 416.628 492.569 416.612 492.852 417.46C493.061 418.088 493.87 418.603 494.649 418.603C495.793 418.603 496.066 416.289 496.066 406.603C496.066 396.603 495.816 394.603 494.566 394.603C493.453 394.603 493.066 395.774 493.066 399.138ZM483.895 413.948C481.844 412.092 481.558 409.421 483.101 406.537C484.376 404.156 489.265 403.945 491.495 406.174C496.43 411.11 489.073 418.635 483.895 413.948Z" fill="white"/>
<path fill-rule="evenodd" clip-rule="evenodd" d="M386.283 406.772C386.482 414.608 386.939 418.064 387.816 418.355C388.654 418.633 389.066 417.635 389.066 415.326C389.066 411.926 389.132 411.874 394.203 411.273C402.212 410.325 405.662 405.59 402.624 399.716C400.773 396.135 399.391 395.603 391.951 395.603H386L386.283 406.772ZM389.566 408.103L389.261 403.353L388.956 398.603H394.033C398.454 398.603 399.253 398.92 400.229 401.062C401.13 403.038 401.016 404.031 399.649 406.117C398.195 408.335 397.339 408.668 393.757 408.408L389.566 408.103Z" fill="white"/>
<path fill-rule="evenodd" clip-rule="evenodd" d="M549.701 403.676C547.692 405.256 547.074 406.622 547.098 409.426C547.135 413.759 548.701 416.134 552.467 417.565C558.156 419.728 563.466 416.039 563.466 409.924C563.466 402.952 555.321 399.255 549.701 403.676ZM551.637 414.032C549.778 412.172 549.567 407.502 551.266 405.803C553.255 403.814 557.794 404.377 559.509 406.826C561.567 409.763 561.473 411.196 559.066 413.603C556.664 416.005 553.778 416.172 551.637 414.032Z" fill="white"/>
<path fill-rule="evenodd" clip-rule="evenodd" d="M599.283 412.772C599.482 420.608 599.939 424.064 600.816 424.355C601.683 424.643 602.066 423.486 602.066 420.579C602.066 416.955 602.302 416.495 603.816 417.177C612.286 420.99 620.091 410.537 613.611 404.058C611.023 401.469 607.231 400.909 604 402.638C602.667 403.352 602.066 403.352 602.066 402.638C602.066 402.069 601.376 401.603 600.533 401.603C599.231 401.603 599.043 403.282 599.283 412.772ZM605.307 414.57C602.241 412.854 601.374 409.765 603.069 406.598C603.958 404.935 604.971 404.555 607.863 404.797C610.851 405.046 611.711 405.621 612.509 407.906C614.293 413.008 609.856 417.114 605.307 414.57Z" fill="white"/>
<path fill-rule="evenodd" clip-rule="evenodd" d="M653.816 402.683C650.835 404.42 651.867 405.29 656.793 405.195C660.542 405.122 661.593 405.465 661.867 406.853C662.15 408.286 661.487 408.603 658.211 408.603C653.642 408.603 650.808 410.792 651.263 413.968C651.682 416.895 656.142 418.905 659.438 417.652C661.073 417.03 662.21 417.026 662.59 417.641C664.149 420.165 665.066 417.987 665.066 411.758C665.066 406.397 664.67 404.554 663.237 403.258C661.198 401.413 656.491 401.125 653.816 402.683ZM657.425 415.603C654.852 415.603 653.639 414.158 654.446 412.055C655.164 410.185 662.066 410.047 662.066 411.903C662.066 413.89 659.918 415.603 657.425 415.603Z" fill="white"/>
<path fill-rule="evenodd" clip-rule="evenodd" d="M706.355 403.853C701.951 408.665 702.688 414.322 708.084 417.112C710.621 418.424 711.819 418.51 714.635 417.58C718.655 416.254 720.066 414.087 720.066 409.241C720.066 402.544 710.864 398.927 706.355 403.853ZM715.495 414.032C710.991 418.535 704.04 412.344 707.562 406.968C709.262 404.375 713.801 403.738 715.866 405.803C717.565 407.502 717.354 412.172 715.495 414.032Z" fill="white"/>
<path fill-rule="evenodd" clip-rule="evenodd" d="M687.507 403.071C685.367 404.69 685.574 404.776 692.044 404.969C695.444 405.071 696.604 405.524 696.867 406.853C697.145 408.262 696.504 408.603 693.574 408.603C688.65 408.603 686.066 410.156 686.066 413.115C686.066 416.756 690.392 419.296 694.167 417.871C695.784 417.261 697.066 417.181 697.066 417.69C697.066 418.192 697.741 418.603 698.566 418.603C701.067 418.603 700.653 406.19 698.066 403.603C695.689 401.226 690.305 400.955 687.507 403.071ZM692.425 415.603C689.852 415.603 688.639 414.158 689.446 412.055C690.164 410.185 697.066 410.047 697.066 411.903C697.066 413.89 694.918 415.603 692.425 415.603Z" fill="white"/>
<path fill-rule="evenodd" clip-rule="evenodd" d="M502.76 403.629C499.315 406.339 498.692 408.773 500.399 412.857C502.277 417.352 506.807 419.367 511.066 417.603C512.716 416.92 514.066 415.74 514.066 414.982C514.066 413.305 513.58 413.265 511.203 414.749C508.789 416.257 504.399 415.093 503.06 412.591C502.05 410.704 502.318 410.603 508.364 410.603C511.867 410.603 514.996 410.34 515.318 410.018C516.329 409.006 513.939 403.605 512.027 402.582C509.127 401.03 505.55 401.434 502.76 403.629ZM503.11 406.521C503.623 405.562 504.611 404.574 505.305 404.325C508.07 403.334 513.066 405.556 513.066 407.777C513.066 408.288 510.616 408.607 507.621 408.485C502.784 408.29 502.281 408.07 503.11 406.521Z" fill="white"/>
<path fill-rule="evenodd" clip-rule="evenodd" d="M361.316 402.265C360.629 402.543 360.066 403.323 360.066 403.999C360.066 404.807 361.685 405.207 364.787 405.166C368.514 405.116 369.583 405.472 369.861 406.853C370.148 408.28 369.495 408.603 366.33 408.603C364.195 408.603 361.645 409.191 360.662 409.909C356.139 413.216 362.363 420.156 367.679 417.733C369.161 417.058 370.066 417.017 370.066 417.624C370.066 418.163 370.741 418.603 371.566 418.603C372.74 418.603 373.066 417.239 373.066 412.326C373.066 404.236 371.363 401.573 366.259 401.682C364.228 401.725 362.004 401.988 361.316 402.265ZM362.066 413.77C362.066 412.761 362.366 411.636 362.733 411.27C363.98 410.023 370.066 410.548 370.066 411.903C370.066 414.029 367.854 415.603 364.866 415.603C362.818 415.603 362.066 415.111 362.066 413.77Z" fill="white"/>
<path d="M131.376 18.8541C126.59 10.4231 125.504 5.93012 127.397 2.39312C130.572 -3.53788 140.401 1.61112 155.699 17.2201L163.53 25.2101L197.699 21.2521L231.868 17.2941L234.618 19.8081C238.001 22.9011 238.042 23.6841 234.899 25.1161C233.542 25.7341 232.711 26.6941 233.054 27.2491C233.397 27.8031 233.199 27.9621 232.615 27.6011C232.031 27.2401 228.474 28.6721 224.711 30.7831C220.947 32.8941 210.53 38.5641 201.561 43.3821C186.565 51.4391 185.359 52.2901 186.561 53.9691C187.28 54.9731 191.658 61.3421 196.289 68.1211C201.478 75.7161 205.317 80.3951 206.289 80.3101C207.158 80.2331 214.886 79.3711 223.463 78.3931C239.58 76.5561 242.745 76.7611 242.192 79.6111C241.885 81.1941 239.289 82.7221 221.164 91.9861L213.46 95.9241L214.958 99.5091C216.339 102.814 215.974 108.348 214.509 106.33C213.204 104.533 207.16 101.757 206.364 102.588C202.212 106.922 197.583 113.504 198.076 114.371C198.413 114.964 198.336 115.13 197.904 114.741C197.473 114.351 196.388 114.902 195.494 115.964C193.905 117.85 193.791 117.824 190.449 114.785L187.031 111.675L190.144 101.061L193.256 90.4481L183.062 80.4481C161.698 59.4911 139.273 32.7681 131.376 18.8541Z" fill="white"/>
<path d="M102.172 47.5771C105.22 52.2711 119.131 52.0391 124.189 47.2101C126.54 44.9651 126.439 45.8491 123.756 50.9791C121.578 55.1461 121.204 56.9571 121.582 61.5101C121.874 65.0391 122.824 68.0741 124.233 69.9791C126.827 73.4881 126.557 73.5891 121.629 70.9481C117.399 68.6811 107.527 68.1891 105.568 70.1481C104.908 70.8081 104.368 70.9811 104.368 70.5331C104.368 70.0851 103.258 70.4451 101.901 71.3351L99.4342 72.9511L101.561 69.3451C104.3 64.7031 104.511 55.8441 101.995 51.1051C100.38 48.0631 100.532 45.0501 102.172 47.5771Z" fill="white"/>
<path d="M134.339 78.8491C138.813 63.7781 142.706 50.6611 142.988 49.6981C143.758 47.0801 144.837 47.5491 147.594 51.6981C148.964 53.7611 153.299 58.7331 157.227 62.7471C161.154 66.7621 164.368 70.2611 164.368 70.5221C164.368 72.5311 132.348 112.108 131.068 111.681C130.475 111.484 129.138 110.181 128.096 108.786L126.203 106.25L134.339 78.8491Z" fill="white"/>
<path d="M66.2642 109.728C78.3892 101.469 91.9612 96.2411 106.953 94.0551C110.206 93.5801 115.681 93.1371 119.118 93.0701C126.147 92.9331 126.277 93.1211 123.868 99.9481C123.043 102.286 122.368 105.193 122.368 106.407C122.368 108.827 129.286 116.948 131.346 116.948C132.923 116.948 138.221 111.415 143.542 104.213C145.73 101.251 148.141 98.5891 148.898 98.2981C149.656 98.0071 152.771 98.7031 155.822 99.8451C158.872 100.986 161.375 101.589 161.383 101.184C161.392 100.779 161.729 100.92 162.133 101.496C162.537 102.072 165.118 103.824 167.868 105.389C175.588 109.782 185.344 117.27 190.983 123.132C197.425 129.828 204.368 139.354 204.368 141.499C204.368 143.601 196.957 158.384 193.616 162.948L191.053 166.448L195.296 162.448C201.133 156.945 210.838 143.935 213.362 138.23C215.925 132.435 216.169 126.1 213.959 122.727C212.363 120.291 212.386 120.176 214.585 119.587C215.841 119.251 220.468 118.979 224.868 118.984C242.471 119.002 248.235 127.638 241.078 143.271C239.648 146.393 238.791 148.962 239.173 148.978C239.555 148.995 239.08 149.467 238.118 150.028C237.156 150.589 236.368 151.481 236.368 152.012C236.368 153.814 216.251 177.446 210.495 182.404C209.19 183.528 206.563 185.935 204.657 187.753C195.078 196.888 161.656 223.154 152.622 228.648C150.836 229.734 149.711 230.992 150.122 231.445C150.532 231.898 150.362 231.98 149.743 231.627C149.124 231.273 146.766 232.326 144.502 233.966C142.238 235.606 140.132 236.948 139.822 236.948C139.512 236.948 136.695 238.677 133.563 240.791C117.719 251.483 81.2602 270.111 61.8682 277.423C41.1112 285.25 22.4742 288.831 12.2362 286.96C7.91518 286.171 6.18517 285.226 3.36817 282.117C0.462168 278.911 -0.106829 277.554 0.0151709 274.12C0.143171 270.537 5.44717 256.948 6.71817 256.948C6.96817 256.948 6.54118 259.045 5.77018 261.607C3.08918 270.514 4.41815 275.371 10.3792 278.454C16.4002 281.567 31.4502 279.504 47.6012 273.351C58.0902 269.355 80.7362 257.858 92.9962 250.304C108.329 240.857 110.278 239.233 100.64 243.934C96.1152 246.142 91.9522 247.948 91.3902 247.948C90.7072 247.948 90.3682 230.071 90.3682 193.974V139.999L93.4472 138.407C97.1262 136.505 99.7462 130.945 98.8612 126.917C98.0652 123.29 94.0152 119.249 90.3762 118.45C84.6022 117.182 77.3682 123.074 77.3682 129.045C77.3682 132.619 80.3362 136.908 83.8162 138.362C86.2232 139.368 87.1142 140.317 86.8682 141.615C86.6772 142.623 86.4872 167.401 86.4452 196.678L86.3682 249.907L82.6182 251.786C80.5562 252.819 77.6302 253.962 76.1182 254.325L73.3682 254.986L73.3362 232.717L73.3042 210.448L67.7872 202.669C64.5102 198.049 61.8212 195.168 61.1642 195.574C60.4822 195.995 60.3432 195.798 60.8002 195.058C61.2362 194.352 59.8592 191.631 57.4552 188.446C53.1882 182.796 52.6322 181.084 54.4682 179.248C56.3052 177.411 55.7262 171.259 53.4092 168.006C47.4782 159.676 34.3832 164.336 34.3722 174.781C34.3692 177.305 35.2542 178.975 38.0122 181.654C41.3722 184.916 42.0152 185.151 46.2622 184.659L50.8682 184.126L60.5872 197.287L70.3062 210.448L70.3372 232.698C70.3542 244.936 70.4742 255.285 70.6042 255.698C70.8782 256.572 50.9372 262.822 47.6322 262.897C45.8832 262.937 44.7382 261.642 42.3682 256.948C40.7022 253.648 38.8212 250.948 38.1872 250.948C37.5532 250.948 37.2992 250.683 37.6232 250.359C37.9472 250.036 36.9122 247.722 35.3242 245.218C31.2102 238.731 26.7142 227.483 24.1472 217.255C21.3272 206.022 21.1122 183.565 23.7152 172.095C26.8442 158.307 34.8292 141.444 43.0792 131.198C44.9622 128.86 46.2252 126.948 45.8872 126.948C44.5402 126.948 59.3192 114.457 66.2642 109.728Z" fill="white"/>
<path d="M80.7672 130.4C79.9302 127.066 81.7212 123.143 84.6102 121.982C88.5012 120.418 91.0062 120.858 93.7322 123.584C97.1232 126.975 97.1932 131.214 93.9132 134.493C89.3732 139.034 82.3882 136.859 80.7672 130.4Z" fill="white"/>
<path d="M44.7962 181.948C36.6322 181.948 34.2782 170.625 41.7682 167.384C47.4522 164.925 52.7682 168.39 52.7682 174.555C52.7682 179.047 49.6402 181.948 44.7962 181.948Z" fill="white"/>
<path d="M133.368 248.911C156.562 233.359 183.365 211.534 205.239 190.388C211.635 184.205 217.06 179.331 217.295 179.558C217.53 179.784 216.608 181.202 215.246 182.708C213.885 184.215 209.552 189.723 205.618 194.948C181.609 226.837 146.453 261.016 111.368 286.575C103.591 292.24 83.4472 305.948 82.8982 305.948C82.6452 305.948 79.0222 308.022 74.8462 310.558C70.6702 313.093 67.1332 315.005 66.9852 314.808C66.8372 314.61 64.8852 309.148 62.6472 302.669L58.5782 290.891L61.2232 289.551C100.695 269.561 112.424 262.954 133.368 248.911Z" fill="white"/>
<path d="M176.946 237.531C185.555 227.685 203.906 204.049 211.818 192.615C215.091 187.885 217.933 184.18 218.133 184.38C219.058 185.304 202.293 221.512 193.428 237.736C176.461 268.789 152.632 302.27 128.675 328.715L121.186 336.983L96.5312 336.715L71.8762 336.448L70.9442 332.027C70.1311 328.171 70.2582 327.432 71.9402 326.248C73.0002 325.502 79.2682 321.369 85.8682 317.064C92.4682 312.76 99.7562 307.71 102.065 305.843C104.373 303.976 108.423 300.884 111.065 298.972C116.341 295.153 125.161 287.987 129.858 283.703C131.514 282.193 133.232 280.955 133.677 280.953C134.122 280.95 134.165 280.428 133.773 279.793C133.37 279.143 133.495 278.908 134.057 279.256C135.187 279.954 166.414 249.575 176.946 237.531Z" fill="white"/>
<path d="M197.171 240.448C204.525 225.698 211.029 211.239 215.489 199.723C217.348 194.925 219.048 190.987 219.269 190.973C219.489 190.959 219.396 195.561 219.063 201.198C217.98 219.5 213.854 231.233 200.813 253.095C188.066 274.465 178.109 299.216 171.806 325.198L168.956 336.948H151.162C141.375 336.948 133.368 336.582 133.368 336.135C133.368 335.688 134.763 334 136.467 332.385C143.036 326.16 172.856 284.786 177.865 274.948C178.845 273.023 179.934 271.223 180.286 270.948C181.462 270.027 191.126 252.57 197.171 240.448Z" fill="white"/>
<path d="M66.3682 353.963C66.3682 348.432 66.7182 346.843 68.1182 346.028C70.5242 344.627 172.013 344.565 172.878 345.964C173.224 346.523 173.86 346.762 174.292 346.495C174.724 346.228 175.165 349.297 175.271 353.316C175.408 358.504 175.064 360.955 174.084 361.769C172.2 363.332 71.2722 363.502 68.3672 361.947C66.6642 361.036 66.3682 359.853 66.3682 353.963Z" fill="white"/>
<path d="M66.5682 379.086C66.3882 375.293 66.7362 372.209 67.4402 371.361C68.4232 370.177 77.0642 369.948 120.79 369.948C160.04 369.948 173.265 370.245 174.168 371.148C174.862 371.842 175.368 375.169 175.368 379.041C175.368 384.422 175.025 385.902 173.618 386.591C171.917 387.424 70.1222 388.858 70.9452 388.037C71.1712 387.811 70.3462 387.125 69.1122 386.512C67.1982 385.562 66.8242 384.468 66.5682 379.086Z" fill="white"/>
<path d="M86.8072 411.429C81.6952 406.193 75.9302 396.466 76.9552 394.807C77.5462 393.85 163.684 393.597 164.637 394.55C165.561 395.475 162.32 401.936 158.395 406.991C149.082 418.987 139.354 423.944 123.621 424.711C107.984 425.473 96.4572 421.314 86.8072 411.429Z" fill="white"/>
</svg>
